#VRML V2.0 utf8
# 3D model generated by easyeda2kicad.py (https://github.com/uPesy/easyeda2kicad.py)

Shape{
    appearance Appearance {
        material  Material 	{
            diffuseColor 0.2235294117647059 0.2235294117647059 0.2235294117647059
            specularColor 0.11372549019607843 0.11372549019607843 0.11372549019607843
            ambientIntensity 0.2
            transparency 0
            shininess 0.5
        }
    }
    geometry IndexedFaceSet {
        ccw TRUE
        solid FALSE
        coord DEF co Coordinate {
            point [
                0.5235 -0.3983 0.315, 0.5211 -0.3986 0.315, 0.5345 -0.3986 0.315, 0.4821 -0.2601 0.315, 0.4862 -0.2596 0.315, 0.4649 -0.2596 0.315, 0.4959 -0.3136 0.315, 0.4924 -0.3139 0.315, 0.5101 -0.3139 0.315, 0.365 -0.3023 0.315, 0.3751 -0.3112 0.315, 0.4103 -0.2596 0.315, 0.4103 -0.3139 0.315, 0.3135 -0.2541 0.315, 0.3217 -0.2596 0.315, 0.3304 -0.2655 0.315, 0.3429 -0.2798 0.315, 0.3509 -0.2955 0.315, 0.3538 -0.2965 0.315, 0.2425 -0.2548 0.315, 0.26 -0.2481 0.315, -0.1482 0.4465 0.315, 0.4103 0.4465 0.315, 0.2788 -0.2458 0.315, 0.2945 -0.2474 0.315, 0.2348 -0.2596 0.315, -0.1482 -0.2596 0.315, 0.2333 -0.2606 0.315, -0.1482 -0.3139 0.315, 0.1517 -0.3139 0.315, 0.155 -0.3065 0.315, 0.1642 -0.2947 0.315, 0.1928 -0.2784 0.315, 0.2078 -0.2765 0.315, 0.2243 -0.2682 0.315, 0.2122 -0.2767 0.315, 0.2166 -0.2773 0.315, 0.1667 -0.2923 0.315, 0.1788 -0.2838 0.315, 0.1878 -0.3961 0.315, 0.1741 -0.3894 0.315, -0.1482 -0.3986 0.315, 0.1623 -0.3793 0.315, 0.1537 -0.3671 0.315, 0.1482 -0.353 0.315, -0.1482 -0.3296 0.315, 0.1464 -0.338 0.315, 0.1465 -0.3345 0.315, 0.1473 -0.3296 0.315, 0.149 -0.3202 0.315, 0.1927 -0.3976 0.315, 0.1931 -0.3986 0.315, 0.1964 -0.4057 0.315, 0.2021 -0.4127 0.315, 0.2444 -0.4197 0.315, 0.2379 -0.4222 0.315, 0.4103 -0.4465 0.315, 0.2287 -0.4234 0.315, 0.2272 -0.4233 0.315, -0.1482 -0.4465 0.315, 0.2183 -0.4219 0.315, -0.1482 -0.4197 0.315, 0.213 -0.4197 0.315, 0.2095 -0.4183 0.315, 0.2643 -0.3986 0.315, 0.2643 -0.3987 0.315, 0.4103 -0.4197 0.315, 0.2598 -0.4071 0.315, 0.2539 -0.4137 0.315, 0.2463 -0.419 0.315, 0.2572 -0.36 0.315, 0.308 -0.3334 0.315, 0.2506 -0.354 0.315, 0.2425 -0.3496 0.315, 0.3161 -0.3981 0.315, 0.3136 -0.3973 0.315, 0.311 -0.3958 0.315, 0.3094 -0.3941 0.315, 0.3648 -0.3423 0.315, 0.363 -0.335 0.315, 0.3601 -0.3296 0.315, 0.1712 -0.3296 0.315, 0.3106 -0.3776 0.315, 0.313 -0.3761 0.315, 0.3198 -0.3535 0.315, 0.3156 -0.3751 0.315, 0.3814 -0.3719 0.315, 0.3744 -0.3812 0.315, 0.4103 -0.3986 0.315, 0.3731 -0.3827 0.315, 0.3631 -0.3907 0.315, 0.1734 -0.3523 0.315, 0.178 -0.3601 0.315, 0.1972 -0.364 0.315, 0.1848 -0.3671 0.315, 0.193 -0.3721 0.315, 0.2113 -0.3514 0.315, 0.2035 -0.3568 0.315, 0.1703 -0.3372 0.315, 0.1707 -0.343 0.315, 0.387 -0.3339 0.315, 0.3885 -0.3452 0.315, 0.4103 -0.3296 0.315, 0.3884 -0.3476 0.315, 0.3864 -0.36 0.315, 0.3514 -0.396 0.315, 0.3399 -0.3983 0.315, 0.3175 -0.3983 0.315, 0.3065 -0.3866 0.315, 0.3066 -0.3854 0.315, 0.2667 -0.3816 0.315, 0.3073 -0.3825 0.315, 0.3087 -0.3798 0.315, 0.2197 -0.3482 0.315, 0.2287 -0.3471 0.315, 0.2334 -0.3474 0.315, 0.3078 -0.3917 0.315, 0.3068 -0.3892 0.315, 0.2665 -0.3893 0.315, 0.2667 -0.3854 0.315, 0.3183 -0.3748 0.315, 0.3186 -0.3748 0.315, 0.3198 -0.3751 0.315, 0.3573 -0.3656 0.315, 0.3614 -0.3597 0.315, 0.3641 -0.3529 0.315, 0.365 -0.3456 0.315, 0.3206 -0.3752 0.315, 0.3376 -0.3752 0.315, 0.3444 -0.3739 0.315, 0.3511 -0.3708 0.315, 0.3567 -0.3662 0.315, 0.3323 -0.316 0.315, 0.1746 -0.3196 0.315, 0.1714 -0.3281 0.315, 0.3354 -0.316 0.315, 0.3595 -0.3285 0.315, 0.3551 -0.3235 0.315, 0.3492 -0.3194 0.315, 0.3426 -0.3169 0.315, 0.1786 -0.3139 0.315, 0.2283 -0.305 0.315, 0.2255 -0.3034 0.315, 0.3263 -0.2968 0.315, 0.3185 -0.2859 0.315, 0.3136 -0.2812 0.315, 0.3028 -0.2741 0.315, 0.2908 -0.2698 0.315, 0.217 -0.3003 0.315, 0.2082 -0.2993 0.315, 0.2043 -0.2995 0.315, 0.332 -0.3139 0.315, 0.3312 -0.3095 0.315, 0.2792 -0.2685 0.315, 0.2769 -0.2686 0.315, 0.2333 -0.2942 0.315, 0.2643 -0.2706 0.315, 0.2416 -0.2838 0.315, 0.252 -0.2758 0.315, 0.195 -0.3017 0.315, 0.1865 -0.3061 0.315, 0.1799 -0.312 0.315, 0.377 -0.3139 0.315, 0.3826 -0.3222 0.315, 0.3854 -0.3296 0.315, 0.6334 -0.2989 0.315, 0.6138 -0.2989 0.315, 0.6388 -0.3135 0.315, 0.6138 -0.3139 0.315, 0.6464 -0.3135 0.315, 0.732 -0.3139 0.315, 0.6261 -0.2601 0.315, 0.732 -0.2596 0.315, 0.6138 -0.2596 0.315, 0.6112 -0.2989 0.315, 0.606 -0.3135 0.315, 0.5969 -0.3139 0.315, 0.5984 -0.3135 0.315, 0.5969 -0.2596 0.315, 0.6138 -0.2731 0.315, 0.6187 -0.2601 0.315, 0.5345 -0.2894 0.315, 0.5201 -0.2894 0.315, 0.5345 -0.3074 0.315, 0.5201 -0.3074 0.315, 0.5469 -0.2596 0.315, 0.5345 -0.2596 0.315, 0.5407 -0.2601 0.315, 0.5345 -0.2601 0.315, 0.5407 -0.2662 0.315, 0.5419 -0.3074 0.315, 0.5469 -0.3139 0.315, 0.5419 -0.3135 0.315, 0.5345 -0.3139 0.315, 0.5392 -0.2894 0.315, 0.5392 -0.2833 0.315, 0.5345 -0.2833 0.315, 0.5345 -0.2662 0.315, 0.5201 -0.2662 0.315, 0.5201 -0.2833 0.315, 0.5132 -0.2601 0.315, 0.5101 -0.2596 0.315, 0.5132 -0.3135 0.315, 0.5025 -0.2614 0.315, 0.497 -0.2597 0.315, 0.4955 -0.2596 0.315, 0.5345 -0.3135 0.315, 0.5025 -0.2686 0.315, 0.5016 -0.3117 0.315, 0.4912 -0.3081 0.315, 0.4973 -0.307 0.315, 0.5025 -0.3046 0.315, 0.5025 -0.3112 0.315, 0.4724 -0.299 0.315, 0.475 -0.3026 0.315, 0.476 -0.3036 0.315, 0.4795 -0.3061 0.315, 0.4833 -0.3076 0.315, 0.4887 -0.3082 0.315, 0.4965 -0.2662 0.315, 0.4747 -0.2721 0.315, 0.5019 -0.2682 0.315, 0.4722 -0.2759 0.315, 0.4705 -0.2806 0.315, 0.4899 -0.2654 0.315, 0.4879 -0.2655 0.315, 0.4754 -0.2713 0.315, 0.4832 -0.2664 0.315, 0.479 -0.2683 0.315, 0.4698 -0.2874 0.315, 0.4698 -0.2893 0.315, 0.4707 -0.2947 0.315, 0.4649 0.4465 0.315, 0.4899 -0.2592 0.315, 0.5101 0.4465 0.315, 0.49 -0.2592 0.315, 0.4664 -0.2721 0.315, 0.4703 -0.267 0.315, 0.4715 -0.2658 0.315, 0.4765 -0.2623 0.315, 0.4649 -0.3 0.315, 0.4634 -0.2957 0.315, 0.4617 -0.3139 0.315, 0.4625 -0.2878 0.315, 0.4626 -0.285 0.315, 0.4617 -0.2596 0.315, 0.4638 -0.278 0.315, 0.4649 -0.2755 0.315, 0.4737 -0.3106 0.315, 0.4694 -0.3071 0.315, 0.4649 -0.3139 0.315, 0.4686 -0.3061 0.315, 0.4655 -0.3015 0.315, 0.4877 -0.3144 0.315, 0.4845 -0.3142 0.315, 0.4649 -0.3296 0.315, 0.4831 -0.3139 0.315, 0.4787 -0.313 0.315, 0.594 -0.2957 0.315, 0.5914 -0.3012 0.315, 0.5764 -0.2596 0.315, 0.5764 -0.2614 0.315, 0.5818 -0.2633 0.315, 0.5764 -0.3121 0.315, 0.5764 -0.3139 0.315, 0.5819 -0.3099 0.315, 0.5874 -0.306 0.315, 0.5874 -0.2671 0.315, 0.5892 -0.2689 0.315, 0.5925 -0.2736 0.315, 0.5945 -0.2787 0.315, 0.5954 -0.2861 0.315, 0.5953 -0.2895 0.315, 0.5672 -0.2601 0.315, 0.5754 -0.261 0.315, 0.5758 -0.3123 0.315, 0.5667 -0.3135 0.315, 0.552 -0.3135 0.315, 0.552 -0.2601 0.315, 0.4853 -0.3978 0.315, 0.483 -0.3986 0.315, 0.4913 -0.3981 0.315, 0.47 -0.38 0.315, 0.471 -0.3692 0.315, 0.4687 -0.3819 0.315, 0.4678 -0.3843 0.315, 0.4878 -0.3962 0.315, 0.4773 -0.36 0.315, 0.4724 -0.3619 0.315, 0.471 -0.3627 0.315, 0.4752 -0.3985 0.315, 0.4727 -0.3975 0.315, 0.4649 -0.3986 0.315, 0.4706 -0.396 0.315, 0.4721 -0.3782 0.315, 0.4749 -0.3767 0.315, 0.4757 -0.3663 0.315, 0.48 -0.3755 0.315, 0.4859 -0.3648 0.315, 0.4835 -0.3646 0.315, 0.4799 -0.3649 0.315, 0.4697 -0.3951 0.315, 0.4684 -0.3932 0.315, 0.4676 -0.3909 0.315, 0.4913 -0.3922 0.315, 0.4911 -0.3922 0.315, 0.4899 -0.394 0.315, 0.51 -0.3775 0.315, 0.507 -0.3899 0.315, 0.5101 -0.3775 0.315, 0.5094 -0.3914 0.315, 0.5101 -0.3917 0.315, 0.5081 -0.3659 0.315, 0.495 -0.3633 0.315, 0.5073 -0.368 0.315, 0.4964 -0.3654 0.315, 0.4974 -0.3685 0.315, 0.4842 -0.3591 0.315, 0.4881 -0.3595 0.315, 0.491 -0.3603 0.315, 0.4913 -0.3739 0.315, 0.491 -0.371 0.315, 0.4904 -0.3686 0.315, 0.4896 -0.3672 0.315, 0.4673 -0.3879 0.315, 0.4673 -0.3871 0.315, 0.5101 -0.3296 0.315, 0.5093 -0.364 0.315, 0.4932 -0.3616 0.315, 0.4886 -0.3661 0.315, 0.4874 -0.3654 0.315, 0.5089 -0.3763 0.315, 0.5081 -0.375 0.315, 0.498 -0.3736 0.315, 0.5074 -0.373 0.315, 0.5071 -0.3703 0.315, 0.4826 -0.3987 0.315, 0.5101 -0.4197 0.315, 0.4649 -0.4197 0.315, 0.4794 -0.399 0.315, 0.4784 -0.399 0.315, 0.4756 -0.3986 0.315, 0.507 -0.3968 0.315, 0.498 -0.3981 0.315, 0.5101 -0.3979 0.315, 0.5101 -0.3986 0.315, 0.5117 -0.3984 0.315, 0.513 -0.3986 0.315, 0.5174 -0.399 0.315, 0.5309 -0.3608 0.315, 0.5309 -0.3673 0.315, 0.5317 -0.3925 0.315, 0.5305 -0.3942 0.315, 0.5101 -0.3633 0.315, 0.5113 -0.3622 0.315, 0.5129 -0.3612 0.315, 0.5325 -0.3903 0.315, 0.5165 -0.3598 0.315, 0.5219 -0.3591 0.315, 0.5345 -0.3296 0.315, 0.5266 -0.3596 0.315, 0.5285 -0.396 0.315, 0.527 -0.3969 0.315, 0.5305 -0.3815 0.315, 0.5317 -0.3832 0.315, 0.5324 -0.3851 0.315, 0.5328 -0.3878 0.315, 0.5212 -0.3646 0.315, 0.5193 -0.3647 0.315, 0.5139 -0.3697 0.315, 0.5175 -0.3652 0.315, 0.516 -0.366 0.315, 0.514 -0.3706 0.315, 0.5143 -0.3716 0.315, 0.5148 -0.3725 0.315, 0.5154 -0.3733 0.315, 0.5178 -0.3747 0.315, 0.5259 -0.3651 0.315, 0.5219 -0.3765 0.315, 0.5297 -0.3666 0.315, 0.5245 -0.3776 0.315, 0.5289 -0.38 0.315, 0.515 -0.3669 0.315, 0.5144 -0.3677 0.315, 0.5141 -0.3686 0.315, 0.5136 -0.393 0.315, 0.5172 -0.3814 0.315, 0.5132 -0.3796 0.315, 0.518 -0.3936 0.315, 0.5183 -0.3936 0.315, 0.5216 -0.3832 0.315, 0.5217 -0.3932 0.315, 0.5259 -0.3884 0.315, 0.5258 -0.3876 0.315, 0.5235 -0.3926 0.315, 0.5241 -0.3922 0.315, 0.5248 -0.3915 0.315, 0.5254 -0.3907 0.315, 0.5258 -0.3897 0.315, 0.5255 -0.3866 0.315, 0.525 -0.3857 0.315, 0.5242 -0.3848 0.315, 0.5659 -0.36 0.315, 0.5728 -0.36 0.315, 0.5764 -0.3296 0.315, 0.5537 -0.3887 0.315, 0.5545 -0.3918 0.315, 0.5547 -0.3918 0.315, 0.5469 -0.3296 0.315, 0.5469 -0.3693 0.315, 0.5555 -0.3887 0.315, 0.555 -0.3905 0.315, 0.5469 -0.3986 0.315, 0.5469 -0.3872 0.315, 0.5362 -0.36 0.315, 0.5437 -0.36 0.315, 0.5512 -0.3981 0.315, 0.551 -0.3986 0.315, 0.5483 -0.405 0.315, 0.5345 -0.4197 0.315, 0.5376 -0.4156 0.315, 0.5376 -0.4096 0.315, 0.539 -0.4101 0.315, 0.5414 -0.4104 0.315, 0.5419 -0.4103 0.315, 0.5434 -0.4101 0.315, 0.5449 -0.4094 0.315, 0.5456 -0.4089 0.315, 0.5468 -0.4075 0.315, 0.5469 -0.4074 0.315, 0.5469 -0.4149 0.315, 0.5447 -0.4158 0.315, 0.5469 -0.4197 0.315, 0.5419 -0.4161 0.315, 0.5403 -0.416 0.315, 0.5555 -0.4039 0.315, 0.5524 -0.4099 0.315, 0.5764 -0.4197 0.315, 0.5576 -0.3986 0.315, 0.55 -0.4128 0.315, 0.5496 -0.4131 0.315, 0.5473 -0.4148 0.315, 0.5969 -0.3741 0.315, 0.5869 -0.3741 0.315, 0.5969 -0.3921 0.315, 0.5869 -0.3921 0.315, 0.6075 -0.3448 0.315, 0.6075 -0.3509 0.315, 0.6138 -0.3296 0.315, 0.6087 -0.3921 0.315, 0.6138 -0.3986 0.315, 0.6087 -0.3981 0.315, 0.5969 -0.3986 0.315, 0.606 -0.3741 0.315, 0.606 -0.368 0.315, 0.5969 -0.368 0.315, 0.5969 -0.3509 0.315, 0.5869 -0.3509 0.315, 0.5869 -0.368 0.315, 0.5969 -0.3981 0.315, 0.58 -0.3981 0.315, 0.5764 -0.3986 0.315, 0.58 -0.3448 0.315, 0.5969 -0.3448 0.315, 0.5969 -0.3296 0.315, 0.5345 0.4465 0.315, 0.5469 0.4465 0.315, 0.5764 0.4465 0.315, 0.5969 0.4465 0.315, 0.6138 0.4465 0.315, 0.732 0.4465 0.315, 0.4617 0.4465 0.315, 0.4604 -0.3074 0.315, 0.4604 -0.3135 0.315, 0.4322 -0.3135 0.315, 0.4322 -0.2601 0.315, 0.4391 -0.2601 0.315, 0.4391 -0.3074 0.315, 0.732 -0.3296 0.315, 0.4617 -0.3296 0.315, 0.6729 -0.3981 0.315, 0.6653 -0.3981 0.315, 0.6856 -0.3448 0.315, 0.6614 -0.3633 0.315, 0.6623 -0.3708 0.315, 0.693 -0.3448 0.315, 0.732 -0.3986 0.315, 0.7133 -0.3981 0.315, 0.7057 -0.3981 0.315, 0.7002 -0.3835 0.315, 0.678 -0.3835 0.315, 0.6621 -0.3741 0.315, 0.6608 -0.3804 0.315, 0.6582 -0.3859 0.315, 0.6542 -0.3907 0.315, 0.6487 -0.3946 0.315, 0.6188 -0.3448 0.315, 0.6188 -0.3981 0.315, 0.6335 -0.3981 0.315, 0.6427 -0.397 0.315, 0.6542 -0.3518 0.315, 0.6561 -0.3536 0.315, 0.6594 -0.3583 0.315, 0.6341 -0.3448 0.315, 0.6422 -0.3457 0.315, 0.6486 -0.348 0.315, 0.4617 -0.3986 0.315, 0.4322 -0.3981 0.315, 0.4609 -0.3981 0.315, 0.4609 -0.3921 0.315, 0.4597 -0.3509 0.315, 0.4322 -0.3448 0.315, 0.4597 -0.3448 0.315, 0.4391 -0.3741 0.315, 0.4391 -0.3921 0.315, 0.4582 -0.3741 0.315, 0.4582 -0.368 0.315, 0.4391 -0.368 0.315, 0.4391 -0.3509 0.315, 0.5969 -0.4197 0.315, 0.6138 -0.4197 0.315, 0.732 -0.4197 0.315, 0.4617 -0.4197 0.315, 0.4617 -0.4465 0.315, 0.4649 -0.4465 0.315, 0.5101 -0.4465 0.315, 0.5345 -0.4465 0.315, 0.5469 -0.4465 0.315, 0.5764 -0.4465 0.315, 0.5969 -0.4465 0.315, 0.6138 -0.4465 0.315, 0.732 -0.4465 0.315, -0.4428 0.4465 0.315, -0.4428 -0.2596 0.315, -0.4428 -0.3139 0.315, -0.4428 -0.3296 0.315, -0.4428 -0.3986 0.315, -0.4428 -0.4197 0.315, -0.4428 -0.4465 0.315, -0.7776 0.4724 0.0, -0.7776 0.4724 -0.0787, -0.7776 0.315 0.0, -0.7776 0.315 -0.0787, 0.7776 0.4724 -0.0787, 0.7776 0.4724 0.0, 0.7776 0.315 -0.0787, 0.7776 0.315 0.0, 0.7776 -0.4724 0.0, 0.7776 -0.4724 -0.0787, 0.7776 -0.315 0.0, 0.7776 -0.315 -0.0787, 0.7579 -0.4921 0.0, -0.7579 -0.4921 0.0, 0.7579 -0.4921 -0.0787, -0.7579 -0.4921 -0.0787, -0.7776 -0.4724 -0.0787, -0.7776 -0.4724 0.0, -0.7776 -0.315 -0.0787, -0.7776 -0.315 0.0, -0.7579 0.4921 0.0, 0.7579 0.4921 0.0, -0.7579 0.4921 -0.0787, 0.7579 0.4921 -0.0787, 0.6496 0.315 -0.0787, 0.7769 0.4775 -0.0787, -0.6496 0.315 -0.0787, -0.6496 -0.315 -0.0787, 0.6496 -0.315 -0.0787, 0.7771 -0.4768 -0.0787, -0.7769 0.4775 -0.0787, -0.7749 0.4823 -0.0787, -0.7718 0.4864 -0.0787, -0.7677 0.4895 -0.0787, -0.763 0.4915 -0.0787, 0.763 0.4915 -0.0787, 0.7677 0.4895 -0.0787, 0.7718 0.4864 -0.0787, 0.7749 0.4823 -0.0787, -0.7677 -0.4895 -0.0787, -0.7718 -0.4864 -0.0787, -0.7749 -0.4823 -0.0787, 0.7733 -0.4847 -0.0787, 0.7701 -0.4878 -0.0787, 0.7664 -0.4902 -0.0787, -0.763 -0.4915 -0.0787, -0.7769 -0.4775 -0.0787, 0.7756 -0.481 -0.0787, 0.7623 -0.4916 -0.0787, 0.7516 0.4465 0.297, 0.7516 -0.4465 0.297, 0.7776 -0.4725 0.0, 0.7776 0.4725 0.0, -0.7579 0.4921 -0.0, -0.732 0.4661 0.297, 0.732 0.4661 0.297, 0.7579 0.4921 0.0, -0.7776 -0.4725 -0.0, -0.7516 -0.4465 0.297, -0.7516 0.4465 0.297, -0.7776 0.4725 -0.0, 0.7579 -0.4921 -0.0, 0.732 -0.4661 0.297, -0.732 -0.4661 0.297, -0.7579 -0.4921 0.0, -0.732 0.4465 0.315, -0.732 -0.4465 0.315, -0.5614 0.4465 0.315, -0.5614 -0.4465 0.315, -0.7579 0.4921 0.0, -0.763 0.4914 0.0002, -0.763 0.4914 0.0002, -0.7677 0.4895 0.0003, -0.7677 0.4895 0.0003, -0.7718 0.4864 0.0004, -0.7749 0.4823 0.0003, -0.7749 0.4823 0.0003, -0.7769 0.4776 0.0002, -0.7769 0.4775 0.0002, -0.7776 0.4725 0.0, 0.7769 0.4775 0.0002, 0.7769 0.4776 0.0002, 0.7749 0.4823 0.0003, 0.7749 0.4823 0.0003, 0.7718 0.4864 0.0004, 0.7677 0.4895 0.0003, 0.7677 0.4895 0.0003, 0.763 0.4914 0.0002, 0.763 0.4914 0.0002, -0.7509 0.4516 0.2974, -0.7509 0.4516 0.2974, -0.7489 0.4563 0.2976, -0.7489 0.4563 0.2976, -0.737 0.4654 0.2974, -0.7458 0.4603 0.2977, -0.7417 0.4635 0.2976, -0.7417 0.4635 0.2976, -0.737 0.4654 0.2974, 0.732 0.4513 0.3144, -0.732 0.4513 0.3144, -0.732 0.4514 0.3144, 0.732 0.4514 0.3144, -0.732 0.4559 0.3126, 0.732 0.4559 0.3126, -0.732 0.4559 0.3126, 0.732 0.4559 0.3126, -0.732 0.4598 0.3098, 0.732 0.4598 0.3098, -0.732 0.4599 0.3097, 0.732 0.4599 0.3097, -0.732 0.463 0.3061, 0.732 0.463 0.3061, -0.732 0.463 0.306, 0.732 0.463 0.306, -0.732 0.4651 0.3017, 0.732 0.4651 0.3017, -0.732 0.4652 0.3016, 0.732 0.4652 0.3016, 0.737 0.4654 0.2974, 0.737 0.4654 0.2974, 0.7417 0.4635 0.2976, 0.7417 0.4635 0.2976, 0.7509 0.4516 0.2974, 0.7458 0.4603 0.2977, 0.7489 0.4563 0.2976, 0.7489 0.4563 0.2976, 0.7509 0.4516 0.2974, -0.7776 -0.4725 0.0, -0.7769 -0.4775 0.0002, -0.7769 -0.4776 0.0002, -0.7749 -0.4823 0.0003, -0.7749 -0.4823 0.0003, -0.7718 -0.4864 0.0004, -0.7677 -0.4895 0.0003, -0.7677 -0.4895 0.0003, -0.763 -0.4914 0.0002, -0.763 -0.4914 0.0002, -0.7484 0.4465 0.3061, -0.7453 0.4465 0.3097, -0.7449 0.45 0.3097, -0.741 0.449 0.3126, -0.7366 0.4478 0.3144, -0.7362 0.449 0.3144, -0.7344 0.4507 0.3144, -0.7354 0.45 0.3144, -0.7332 0.4512 0.3144, -0.7368 0.4465 0.3144, -0.75 0.4514 0.3016, -0.7481 0.4559 0.3016, -0.7451 0.4597 0.3016, -0.7413 0.4627 0.3016, -0.7368 0.4645 0.3016, -0.7453 0.4465 0.3098, -0.7414 0.4465 0.3126, -0.7413 0.4465 0.3126, -0.7368 0.4465 0.3144, -0.7401 0.4512 0.3126, -0.7386 0.4532 0.3126, -0.7367 0.4547 0.3126, -0.7344 0.4556 0.3126, -0.7435 0.4532 0.3097, -0.7414 0.456 0.3097, -0.7386 0.4581 0.3097, -0.7354 0.4594 0.3097, -0.7505 0.4465 0.3017, -0.7485 0.4465 0.306, -0.7479 0.4508 0.306, -0.7463 0.4548 0.306, -0.7436 0.4582 0.306, -0.7402 0.4608 0.306, -0.7362 0.4625 0.306, -0.7506 0.4465 0.3016, 0.7354 0.4594 0.3097, 0.7344 0.4556 0.3126, 0.7332 0.4512 0.3144, 0.7344 0.4507 0.3144, 0.7362 0.449 0.3144, 0.7354 0.45 0.3144, 0.7366 0.4478 0.3144, 0.7368 0.4645 0.3016, 0.7413 0.4627 0.3016, 0.7451 0.4597 0.3016, 0.7481 0.4559 0.3016, 0.75 0.4514 0.3016, 0.7506 0.4465 0.3016, 0.7368 0.4465 0.3144, 0.7367 0.4547 0.3126, 0.7386 0.4532 0.3126, 0.7401 0.4512 0.3126, 0.741 0.449 0.3126, 0.7368 0.4465 0.3144, 0.7413 0.4465 0.3126, 0.7414 0.4465 0.3126, 0.7453 0.4465 0.3098, 0.7386 0.4581 0.3097, 0.7414 0.456 0.3097, 0.7435 0.4532 0.3097, 0.7449 0.45 0.3097, 0.7362 0.4625 0.306, 0.7402 0.4608 0.306, 0.7436 0.4582 0.306, 0.7463 0.4548 0.306, 0.7479 0.4508 0.306, 0.7453 0.4465 0.3097, 0.7484 0.4465 0.3061, 0.7485 0.4465 0.306, 0.7505 0.4465 0.3017, 0.7579 -0.4921 0.0, 0.7622 -0.4915 0.0002, 0.763 -0.4914 0.0002, 0.7664 -0.49 0.0003, 0.7677 -0.4895 0.0003, 0.77 -0.4877 0.0003, 0.7718 -0.4864 0.0004, 0.7731 -0.4846 0.0003, 0.7749 -0.4823 0.0003, 0.7755 -0.4809 0.0003, 0.7769 -0.4776 0.0002, 0.777 -0.4768 0.0002, -0.7509 -0.4516 0.2974, -0.7363 -0.4655 0.2973, -0.737 -0.4654 0.2974, -0.7404 -0.464 0.2975, -0.7417 -0.4635 0.2976, -0.744 -0.4617 0.2977, -0.7458 -0.4603 0.2977, -0.7471 -0.4586 0.2977, -0.7489 -0.4563 0.2976, -0.7495 -0.455 0.2975, -0.751 -0.4509 0.2973, -0.7506 -0.4465 0.3016, -0.7505 -0.4465 0.3017, -0.7485 -0.4465 0.306, -0.7484 -0.4465 0.3061, -0.7453 -0.4465 0.3097, -0.7453 -0.4465 0.3098, -0.7414 -0.4465 0.3126, -0.7413 -0.4465 0.3126, -0.7368 -0.4465 0.3144, -0.7368 -0.4465 0.3144, 0.7506 -0.4465 0.3016, 0.7505 -0.4465 0.3017, 0.7485 -0.4465 0.306, 0.7484 -0.4465 0.3061, 0.7453 -0.4465 0.3097, 0.7453 -0.4465 0.3098, 0.7414 -0.4465 0.3126, 0.7413 -0.4465 0.3126, 0.7368 -0.4465 0.3144, 0.7368 -0.4465 0.3144, 0.7509 -0.4516 0.2974, 0.7509 -0.4516 0.2974, 0.7489 -0.4563 0.2976, 0.7489 -0.4563 0.2976, 0.7458 -0.4603 0.2977, 0.737 -0.4654 0.2974, 0.737 -0.4654 0.2974, 0.7417 -0.4635 0.2976, 0.7417 -0.4635 0.2976, -0.732 -0.4651 0.3017, -0.732 -0.463 0.306, -0.7356 -0.4626 0.306, -0.732 -0.463 0.3061, -0.732 -0.4599 0.3097, -0.7349 -0.4596 0.3097, -0.7341 -0.4557 0.3126, -0.733 -0.4513 0.3144, -0.7341 -0.4509 0.3144, -0.7363 -0.4486 0.3144, -0.7358 -0.4496 0.3144, -0.7367 -0.4476 0.3144, -0.732 -0.4513 0.3144, -0.7361 -0.4647 0.3016, -0.7401 -0.4633 0.3016, -0.7436 -0.4611 0.3016, -0.7465 -0.4582 0.3016, -0.7488 -0.4546 0.3016, -0.7501 -0.4507 0.3016, -0.732 -0.4598 0.3098, -0.732 -0.4559 0.3126, -0.732 -0.4559 0.3126, -0.732 -0.4514 0.3144, -0.7378 -0.4539 0.3126, -0.7393 -0.4524 0.3126, -0.7404 -0.4506 0.3126, -0.7411 -0.4486 0.3126, -0.736 -0.455 0.3126, -0.735 -0.4503 0.3144, -0.7378 -0.4586 0.3097, -0.7403 -0.457 0.3097, -0.7424 -0.4549 0.3097, -0.744 -0.4523 0.3097, -0.745 -0.4495 0.3097, -0.7391 -0.4614 0.306, -0.7423 -0.4594 0.306, -0.7449 -0.4568 0.306, -0.7468 -0.4537 0.306, -0.7481 -0.4502 0.306, -0.732 -0.4652 0.3016, 0.7449 -0.45 0.3097, 0.741 -0.449 0.3126, 0.7366 -0.4478 0.3144, 0.7362 -0.449 0.3144, 0.7344 -0.4507 0.3144, 0.7354 -0.45 0.3144, 0.7332 -0.4512 0.3144, 0.75 -0.4514 0.3016, 0.7481 -0.4559 0.3016, 0.7451 -0.4597 0.3016, 0.7413 -0.4627 0.3016, 0.7368 -0.4645 0.3016, 0.732 -0.4652 0.3016, 0.732 -0.4513 0.3144, 0.7401 -0.4512 0.3126, 0.7386 -0.4532 0.3126, 0.7367 -0.4547 0.3126, 0.7344 -0.4556 0.3126, 0.732 -0.4514 0.3144, 0.732 -0.4559 0.3126, 0.732 -0.4559 0.3126, 0.732 -0.4598 0.3098, 0.7435 -0.4532 0.3097, 0.7414 -0.456 0.3097, 0.7386 -0.4581 0.3097, 0.7354 -0.4594 0.3097, 0.7479 -0.4508 0.306, 0.7463 -0.4548 0.306, 0.7436 -0.4582 0.306, 0.7402 -0.4608 0.306, 0.7362 -0.4625 0.306, 0.732 -0.4599 0.3097, 0.732 -0.463 0.3061, 0.732 -0.463 0.306, 0.732 -0.4651 0.3017, 0.732 -0.4651 0.3017
            ]
        }
        coordIndex [
            0,1,2,-1,3,4,5,-1,6,7,8,-1,9,10,11,-1,11,10,12,-1,13,14,11,-1,11,14,15,-1,11,15,16,-1,16,17,11,-1,11,17,18,-1,11,18,9,-1,19,20,21,-1,21,20,22,-1,22,20,23,-1,22,23,24,-1,19,21,25,-1,25,21,26,-1,25,26,27,-1,28,29,26,-1,26,29,30,-1,26,30,31,-1,26,32,27,-1,27,32,33,-1,27,33,34,-1,34,33,35,-1,34,35,36,-1,31,37,26,-1,26,37,38,-1,26,38,32,-1,39,40,41,-1,41,40,42,-1,42,43,41,-1,41,43,44,-1,41,44,45,-1,45,44,46,-1,46,47,45,-1,45,47,48,-1,45,48,28,-1,28,48,49,-1,28,49,29,-1,50,39,51,-1,51,39,41,-1,51,41,52,-1,52,41,53,-1,54,55,56,-1,55,57,56,-1,56,57,58,-1,56,58,59,-1,59,58,60,-1,59,60,61,-1,61,60,62,-1,61,62,41,-1,41,62,63,-1,41,63,53,-1,64,65,66,-1,66,65,67,-1,67,68,66,-1,66,68,69,-1,66,69,54,-1,70,71,72,-1,72,71,73,-1,74,75,64,-1,64,75,76,-1,64,76,77,-1,78,79,71,-1,71,79,80,-1,71,80,81,-1,82,83,84,-1,84,83,85,-1,86,87,88,-1,88,87,89,-1,88,89,90,-1,91,92,93,-1,93,92,94,-1,93,94,95,-1,96,81,97,-1,97,81,98,-1,97,98,93,-1,93,98,99,-1,93,99,91,-1,100,101,102,-1,102,101,103,-1,102,103,88,-1,88,103,104,-1,88,104,86,-1,90,105,88,-1,88,105,106,-1,88,106,64,-1,64,106,107,-1,64,107,74,-1,108,109,110,-1,110,109,111,-1,110,111,84,-1,84,111,112,-1,84,112,82,-1,96,113,81,-1,81,113,114,-1,81,114,71,-1,71,114,115,-1,71,115,73,-1,77,116,64,-1,64,116,117,-1,64,117,118,-1,118,117,108,-1,118,108,119,-1,119,108,110,-1,85,120,84,-1,84,120,121,-1,84,121,122,-1,123,124,84,-1,84,124,125,-1,84,125,71,-1,71,125,126,-1,71,126,78,-1,122,127,84,-1,84,127,128,-1,84,128,129,-1,129,130,84,-1,84,130,131,-1,84,131,123,-1,132,133,134,-1,134,81,132,-1,132,81,80,-1,132,80,135,-1,135,80,136,-1,136,137,135,-1,135,137,138,-1,135,138,139,-1,140,141,142,-1,143,144,141,-1,144,145,141,-1,141,145,146,-1,141,146,147,-1,142,148,140,-1,140,148,149,-1,140,149,150,-1,133,132,140,-1,140,132,151,-1,140,151,141,-1,141,151,152,-1,141,152,143,-1,147,153,141,-1,141,153,154,-1,141,154,155,-1,155,154,156,-1,155,156,157,-1,157,156,158,-1,159,160,150,-1,150,160,161,-1,150,161,140,-1,10,162,12,-1,12,162,163,-1,12,163,102,-1,102,163,164,-1,102,164,100,-1,165,166,167,-1,167,166,168,-1,167,168,169,-1,169,168,170,-1,169,170,171,-1,171,170,172,-1,171,172,173,-1,166,174,168,-1,168,174,175,-1,168,175,176,-1,176,175,177,-1,176,177,178,-1,178,177,179,-1,178,179,173,-1,173,179,180,-1,173,180,171,-1,181,182,183,-1,183,182,184,-1,185,186,187,-1,187,186,188,-1,187,189,185,-1,185,189,190,-1,185,190,191,-1,191,190,192,-1,191,192,193,-1,181,183,194,-1,194,183,190,-1,194,190,195,-1,195,190,189,-1,195,189,196,-1,189,197,196,-1,196,197,198,-1,196,198,199,-1,188,186,200,-1,200,186,201,-1,200,201,202,-1,203,201,204,-1,204,201,205,-1,192,206,193,-1,193,206,202,-1,193,202,8,-1,8,202,201,-1,8,201,207,-1,207,201,203,-1,6,8,208,-1,209,210,207,-1,207,210,211,-1,207,211,8,-1,8,211,212,-1,8,212,208,-1,213,214,207,-1,207,214,215,-1,207,215,216,-1,216,217,207,-1,207,217,218,-1,207,218,209,-1,219,220,221,-1,221,220,222,-1,221,222,223,-1,219,224,220,-1,220,224,225,-1,220,225,226,-1,226,225,227,-1,226,227,228,-1,223,229,221,-1,221,229,230,-1,221,230,207,-1,207,230,231,-1,207,231,213,-1,232,233,234,-1,234,233,235,-1,234,235,205,-1,5,236,237,-1,237,238,5,-1,5,238,239,-1,5,239,3,-1,240,241,242,-1,242,241,243,-1,243,244,245,-1,245,244,246,-1,245,246,5,-1,5,246,247,-1,5,247,236,-1,248,249,250,-1,250,249,251,-1,250,251,252,-1,253,254,255,-1,255,254,256,-1,255,256,250,-1,250,256,257,-1,250,257,248,-1,258,259,176,-1,260,261,178,-1,178,261,262,-1,263,264,265,-1,265,264,176,-1,265,176,266,-1,266,176,259,-1,262,267,178,-1,178,267,268,-1,178,268,269,-1,269,270,178,-1,178,270,271,-1,178,271,176,-1,176,271,272,-1,176,272,258,-1,185,273,260,-1,260,273,274,-1,260,274,261,-1,263,275,264,-1,264,275,276,-1,264,276,191,-1,191,276,277,-1,191,277,185,-1,185,277,278,-1,185,278,273,-1,279,280,281,-1,282,283,284,-1,284,283,285,-1,279,281,286,-1,287,255,288,-1,288,255,289,-1,290,291,292,-1,292,291,293,-1,282,294,283,-1,283,294,295,-1,283,295,296,-1,296,295,297,-1,298,299,297,-1,297,299,300,-1,297,300,296,-1,293,301,292,-1,292,301,302,-1,292,302,303,-1,304,305,281,-1,281,305,306,-1,281,306,286,-1,307,308,309,-1,309,308,310,-1,309,310,311,-1,312,313,314,-1,314,313,315,-1,314,315,316,-1,287,317,255,-1,255,317,318,-1,255,318,319,-1,320,321,297,-1,297,321,322,-1,297,322,323,-1,303,324,292,-1,292,324,325,-1,292,325,255,-1,255,325,285,-1,255,285,289,-1,289,285,283,-1,7,253,326,-1,326,253,255,-1,326,255,327,-1,327,255,319,-1,327,319,312,-1,312,319,328,-1,312,328,313,-1,323,329,297,-1,297,329,330,-1,297,330,298,-1,331,332,333,-1,333,332,334,-1,333,334,316,-1,316,334,335,-1,316,335,314,-1,280,336,337,-1,337,336,338,-1,336,339,338,-1,338,339,340,-1,338,340,341,-1,307,331,308,-1,308,331,333,-1,308,333,342,-1,342,333,343,-1,342,343,344,-1,344,343,345,-1,344,345,346,-1,346,345,347,-1,348,347,337,-1,337,347,345,-1,337,345,280,-1,280,345,343,-1,280,343,281,-1,349,350,2,-1,351,352,2,-1,327,353,326,-1,326,353,354,-1,326,354,355,-1,351,2,356,-1,355,357,326,-1,326,357,358,-1,326,358,359,-1,359,358,360,-1,359,360,349,-1,352,361,2,-1,2,361,362,-1,2,362,0,-1,363,364,350,-1,350,364,365,-1,350,365,2,-1,2,365,366,-1,2,366,356,-1,367,368,369,-1,369,368,370,-1,369,370,371,-1,369,372,367,-1,367,372,373,-1,367,373,374,-1,374,375,367,-1,367,375,376,-1,367,376,377,-1,377,376,378,-1,377,378,379,-1,379,378,380,-1,379,380,350,-1,350,380,381,-1,350,381,363,-1,382,383,371,-1,371,383,384,-1,371,384,369,-1,385,386,311,-1,311,386,387,-1,311,387,309,-1,385,388,386,-1,386,388,389,-1,386,389,390,-1,390,389,391,-1,390,392,393,-1,391,394,390,-1,390,394,395,-1,390,395,396,-1,396,397,390,-1,390,397,398,-1,390,398,392,-1,393,399,390,-1,390,399,400,-1,390,400,401,-1,402,403,404,-1,405,406,407,-1,404,408,402,-1,402,408,409,-1,402,409,410,-1,410,409,405,-1,410,405,411,-1,411,405,407,-1,412,413,2,-1,2,413,414,-1,349,2,359,-1,359,2,414,-1,359,414,408,-1,408,414,415,-1,408,415,409,-1,416,413,417,-1,417,413,412,-1,417,412,418,-1,419,420,421,-1,422,423,2,-1,348,337,1,-1,1,337,419,-1,1,419,2,-1,2,419,421,-1,2,421,422,-1,423,424,2,-1,2,424,425,-1,2,425,426,-1,426,427,2,-1,2,427,428,-1,2,428,412,-1,412,428,429,-1,412,429,418,-1,430,431,432,-1,432,431,433,-1,432,433,419,-1,419,433,434,-1,419,434,420,-1,435,436,437,-1,435,437,438,-1,436,439,437,-1,437,439,440,-1,437,440,432,-1,432,440,441,-1,432,441,430,-1,442,443,444,-1,444,443,445,-1,446,447,448,-1,448,447,449,-1,448,449,450,-1,450,449,451,-1,450,451,452,-1,442,444,453,-1,453,444,449,-1,453,449,454,-1,454,449,447,-1,454,447,455,-1,447,456,455,-1,455,456,457,-1,455,457,458,-1,451,459,452,-1,452,459,460,-1,452,460,461,-1,461,460,462,-1,446,448,463,-1,463,448,464,-1,463,464,462,-1,462,464,404,-1,462,404,461,-1,461,404,403,-1,461,403,438,-1,205,201,234,-1,234,201,186,-1,234,186,465,-1,465,186,185,-1,465,185,466,-1,466,185,260,-1,466,260,467,-1,467,260,178,-1,467,178,468,-1,468,178,173,-1,468,173,469,-1,469,173,172,-1,469,172,470,-1,22,245,471,-1,471,245,5,-1,471,5,232,-1,232,5,4,-1,232,4,233,-1,243,245,242,-1,242,245,472,-1,242,472,473,-1,12,474,11,-1,11,474,475,-1,11,475,476,-1,477,472,476,-1,476,472,245,-1,476,245,11,-1,11,245,22,-1,11,22,13,-1,13,22,24,-1,7,326,8,-1,8,326,359,-1,8,359,193,-1,193,359,408,-1,193,408,191,-1,191,408,404,-1,191,404,264,-1,264,404,464,-1,264,464,176,-1,176,464,448,-1,176,448,168,-1,168,448,478,-1,168,478,170,-1,473,474,242,-1,242,474,12,-1,242,12,479,-1,479,12,102,-1,480,481,450,-1,482,483,484,-1,448,482,478,-1,478,482,485,-1,478,485,486,-1,486,485,487,-1,486,487,488,-1,489,490,488,-1,488,490,480,-1,488,480,486,-1,486,480,450,-1,482,484,481,-1,481,484,491,-1,481,491,492,-1,492,493,481,-1,481,493,494,-1,481,494,495,-1,496,448,497,-1,497,448,450,-1,497,450,498,-1,498,450,481,-1,498,481,499,-1,499,481,495,-1,500,501,482,-1,482,501,502,-1,482,502,483,-1,496,503,448,-1,448,503,504,-1,448,504,482,-1,482,504,505,-1,482,505,500,-1,252,240,250,-1,250,240,242,-1,250,242,255,-1,255,242,479,-1,255,479,292,-1,292,479,506,-1,88,506,507,-1,507,506,508,-1,508,506,509,-1,509,506,479,-1,509,479,510,-1,88,507,102,-1,102,507,511,-1,102,511,479,-1,479,511,512,-1,479,512,510,-1,513,514,515,-1,515,514,509,-1,515,509,516,-1,516,509,510,-1,516,510,517,-1,517,510,518,-1,438,437,461,-1,461,437,519,-1,461,519,452,-1,452,519,520,-1,452,520,450,-1,450,520,521,-1,450,521,486,-1,64,66,88,-1,88,66,522,-1,88,522,506,-1,506,522,338,-1,506,338,292,-1,292,338,341,-1,292,341,290,-1,54,56,66,-1,66,56,523,-1,66,523,522,-1,522,523,524,-1,522,524,338,-1,338,524,525,-1,338,525,337,-1,337,525,526,-1,337,526,419,-1,419,526,527,-1,419,527,432,-1,432,527,528,-1,432,528,437,-1,437,528,529,-1,437,529,519,-1,519,529,530,-1,519,530,520,-1,520,530,531,-1,520,531,521,-1,21,532,26,-1,26,532,533,-1,26,533,28,-1,28,533,534,-1,28,534,45,-1,45,534,535,-1,45,535,41,-1,41,535,536,-1,41,536,61,-1,61,536,537,-1,61,537,59,-1,59,537,538,-1,539,540,541,-1,541,540,542,-1,543,544,545,-1,545,544,546,-1,547,548,549,-1,549,548,550,-1,551,552,553,-1,553,552,554,-1,555,556,557,-1,557,556,558,-1,559,560,561,-1,561,560,562,-1,543,545,563,-1,543,563,564,-1,565,563,566,-1,566,563,567,-1,550,548,553,-1,553,548,568,-1,542,540,565,-1,565,540,569,-1,565,569,570,-1,570,571,565,-1,565,571,572,-1,565,572,573,-1,573,561,565,-1,565,561,562,-1,565,562,563,-1,563,562,574,-1,563,574,575,-1,575,576,563,-1,563,576,577,-1,563,577,564,-1,578,579,566,-1,566,579,580,-1,581,582,583,-1,550,553,567,-1,567,553,554,-1,567,554,566,-1,566,554,584,-1,566,584,578,-1,580,585,566,-1,566,585,555,-1,566,555,557,-1,568,586,553,-1,553,586,581,-1,553,581,587,-1,587,581,583,-1,549,588,547,-1,547,588,589,-1,547,589,590,-1,549,546,588,-1,588,546,544,-1,588,544,591,-1,559,592,593,-1,559,593,560,-1,560,593,594,-1,560,594,595,-1,556,596,597,-1,556,597,558,-1,598,599,539,-1,598,539,597,-1,597,539,541,-1,597,541,558,-1,551,600,601,-1,551,601,552,-1,552,601,602,-1,552,602,603,-1,604,605,606,-1,606,605,607,-1,608,559,561,-1,608,561,609,-1,609,561,573,-1,609,573,610,-1,610,573,572,-1,610,572,611,-1,611,572,612,-1,612,572,571,-1,612,571,613,-1,613,571,614,-1,614,571,570,-1,614,570,615,-1,615,570,616,-1,616,570,569,-1,616,569,617,-1,540,539,569,-1,569,539,618,-1,569,618,617,-1,591,544,543,-1,591,543,619,-1,619,543,564,-1,619,564,620,-1,620,564,577,-1,620,577,621,-1,621,577,622,-1,622,577,576,-1,622,576,623,-1,623,576,624,-1,624,576,575,-1,624,575,625,-1,625,575,626,-1,626,575,574,-1,626,574,627,-1,562,560,574,-1,574,560,595,-1,574,595,627,-1,614,615,628,-1,628,615,616,-1,628,616,598,-1,598,616,617,-1,598,617,599,-1,628,629,614,-1,614,629,630,-1,614,630,613,-1,613,630,631,-1,632,593,592,-1,631,633,613,-1,613,633,634,-1,613,634,612,-1,612,634,635,-1,612,635,611,-1,611,635,636,-1,611,636,610,-1,610,636,632,-1,610,632,609,-1,609,632,592,-1,532,470,637,-1,638,604,606,-1,606,532,638,-1,638,532,637,-1,638,637,639,-1,639,637,640,-1,639,640,641,-1,641,640,642,-1,641,642,643,-1,643,642,644,-1,643,644,645,-1,645,644,646,-1,645,646,647,-1,647,646,648,-1,647,648,649,-1,649,648,650,-1,649,650,651,-1,651,650,652,-1,651,652,653,-1,653,652,654,-1,653,654,655,-1,655,654,656,-1,655,656,593,-1,593,656,594,-1,624,625,657,-1,657,625,626,-1,657,626,594,-1,594,626,627,-1,594,627,595,-1,657,658,624,-1,624,658,659,-1,624,659,623,-1,623,659,660,-1,661,588,591,-1,660,662,623,-1,623,662,663,-1,623,663,622,-1,622,663,664,-1,622,664,621,-1,621,664,665,-1,621,665,620,-1,620,665,661,-1,620,661,619,-1,619,661,591,-1,666,556,555,-1,666,555,667,-1,667,555,585,-1,667,585,668,-1,668,585,580,-1,668,580,669,-1,669,580,670,-1,670,580,579,-1,670,579,671,-1,671,579,672,-1,672,579,578,-1,672,578,673,-1,673,578,674,-1,674,578,584,-1,674,584,675,-1,554,552,584,-1,584,552,603,-1,584,603,675,-1,676,677,678,-1,679,680,681,-1,604,682,683,-1,684,682,604,-1,681,680,604,-1,685,604,680,-1,686,629,628,-1,629,686,630,-1,630,686,687,-1,630,687,631,-1,631,687,688,-1,631,688,633,-1,633,688,689,-1,633,689,634,-1,634,689,635,-1,635,689,690,-1,635,690,636,-1,636,690,632,-1,632,690,655,-1,632,655,593,-1,638,684,604,-1,691,692,679,-1,679,692,693,-1,679,693,680,-1,680,693,694,-1,680,694,685,-1,695,683,696,-1,696,683,682,-1,696,682,697,-1,697,682,684,-1,697,684,698,-1,638,639,684,-1,684,639,641,-1,684,641,698,-1,698,641,643,-1,698,643,645,-1,678,695,699,-1,699,695,696,-1,699,696,700,-1,700,696,697,-1,700,697,701,-1,701,697,698,-1,701,698,702,-1,702,698,645,-1,703,704,705,-1,705,704,676,-1,676,678,705,-1,705,678,699,-1,705,699,706,-1,706,699,700,-1,706,700,707,-1,707,700,701,-1,707,701,708,-1,708,701,702,-1,708,702,709,-1,677,691,678,-1,678,691,679,-1,678,679,695,-1,695,679,681,-1,695,681,683,-1,683,681,604,-1,703,686,710,-1,710,686,628,-1,710,628,598,-1,645,647,702,-1,702,647,649,-1,702,649,709,-1,709,649,651,-1,709,651,653,-1,703,705,686,-1,686,705,706,-1,686,706,687,-1,687,706,707,-1,687,707,688,-1,688,707,708,-1,688,708,689,-1,689,708,709,-1,689,709,690,-1,690,709,653,-1,690,653,655,-1,650,648,711,-1,712,713,714,-1,470,715,716,-1,717,715,470,-1,714,713,470,-1,637,470,713,-1,718,658,657,-1,658,718,659,-1,659,718,719,-1,659,719,660,-1,660,719,720,-1,660,720,662,-1,662,720,721,-1,662,721,663,-1,663,721,664,-1,664,721,722,-1,664,722,665,-1,665,722,661,-1,661,722,723,-1,661,723,588,-1,724,717,470,-1,646,644,712,-1,712,644,642,-1,712,642,713,-1,713,642,640,-1,713,640,637,-1,725,716,726,-1,726,716,715,-1,726,715,727,-1,727,715,717,-1,727,717,728,-1,724,729,717,-1,717,729,730,-1,717,730,728,-1,728,730,731,-1,728,731,732,-1,711,725,733,-1,733,725,726,-1,733,726,734,-1,734,726,727,-1,734,727,735,-1,735,727,728,-1,735,728,736,-1,736,728,732,-1,654,652,737,-1,737,652,650,-1,650,711,737,-1,737,711,733,-1,737,733,738,-1,738,733,734,-1,738,734,739,-1,739,734,735,-1,739,735,740,-1,740,735,736,-1,740,736,741,-1,648,646,711,-1,711,646,712,-1,711,712,725,-1,725,712,714,-1,725,714,716,-1,716,714,470,-1,654,718,656,-1,656,718,657,-1,656,657,594,-1,732,742,736,-1,736,742,743,-1,736,743,741,-1,741,743,744,-1,741,744,745,-1,654,737,718,-1,718,737,738,-1,718,738,719,-1,719,738,739,-1,719,739,720,-1,720,739,740,-1,720,740,721,-1,721,740,741,-1,721,741,722,-1,722,741,745,-1,722,745,723,-1,746,551,553,-1,746,553,747,-1,747,553,587,-1,747,587,748,-1,748,587,583,-1,748,583,749,-1,749,583,750,-1,750,583,582,-1,750,582,751,-1,751,582,752,-1,752,582,581,-1,752,581,753,-1,753,581,754,-1,754,581,586,-1,754,586,755,-1,755,586,756,-1,756,586,568,-1,756,568,757,-1,548,547,568,-1,568,547,590,-1,568,590,757,-1,667,668,758,-1,603,602,675,-1,675,602,759,-1,675,759,674,-1,674,759,760,-1,674,760,673,-1,673,760,761,-1,673,761,672,-1,761,762,672,-1,672,762,763,-1,672,763,671,-1,763,764,671,-1,671,764,765,-1,671,765,670,-1,670,765,766,-1,670,766,669,-1,669,766,668,-1,668,766,767,-1,668,767,758,-1,667,758,596,-1,596,758,768,-1,596,768,597,-1,598,597,710,-1,710,597,769,-1,710,769,703,-1,703,769,770,-1,703,770,704,-1,704,770,771,-1,704,771,676,-1,676,771,772,-1,676,772,677,-1,677,772,773,-1,677,773,691,-1,691,773,774,-1,691,774,692,-1,692,774,775,-1,692,775,693,-1,693,775,776,-1,693,776,694,-1,694,776,777,-1,694,777,685,-1,777,778,685,-1,685,778,605,-1,685,605,604,-1,589,588,779,-1,779,588,723,-1,779,723,780,-1,780,723,745,-1,780,745,781,-1,781,745,744,-1,781,744,782,-1,782,744,743,-1,782,743,783,-1,783,743,742,-1,783,742,784,-1,784,742,732,-1,784,732,785,-1,785,732,731,-1,785,731,786,-1,786,731,730,-1,786,730,787,-1,787,730,729,-1,787,729,788,-1,729,724,788,-1,788,724,470,-1,788,470,531,-1,754,755,789,-1,789,755,756,-1,789,756,589,-1,589,756,757,-1,589,757,590,-1,789,790,754,-1,754,790,791,-1,754,791,753,-1,753,791,792,-1,753,792,793,-1,794,601,600,-1,600,747,794,-1,794,747,748,-1,794,748,795,-1,795,748,749,-1,795,749,796,-1,796,749,750,-1,796,750,797,-1,797,750,751,-1,797,751,793,-1,793,751,752,-1,793,752,753,-1,798,799,800,-1,801,802,803,-1,804,805,806,-1,605,807,808,-1,809,807,605,-1,806,805,605,-1,810,605,805,-1,759,811,760,-1,760,811,812,-1,760,812,761,-1,761,812,762,-1,762,812,813,-1,762,813,763,-1,763,813,764,-1,764,813,814,-1,764,814,765,-1,765,814,766,-1,766,814,815,-1,766,815,767,-1,767,815,758,-1,758,815,816,-1,758,816,768,-1,768,816,769,-1,768,769,597,-1,778,809,605,-1,817,818,804,-1,804,818,819,-1,804,819,805,-1,805,819,820,-1,805,820,810,-1,821,808,822,-1,822,808,807,-1,822,807,823,-1,823,807,809,-1,823,809,824,-1,802,817,803,-1,803,817,804,-1,803,804,825,-1,825,804,806,-1,825,806,826,-1,826,806,605,-1,778,777,809,-1,809,777,776,-1,809,776,824,-1,824,776,775,-1,824,775,774,-1,827,821,828,-1,828,821,822,-1,828,822,829,-1,829,822,823,-1,829,823,830,-1,830,823,824,-1,830,824,831,-1,831,824,774,-1,800,827,832,-1,832,827,828,-1,832,828,833,-1,833,828,829,-1,833,829,834,-1,834,829,830,-1,834,830,835,-1,835,830,831,-1,835,831,836,-1,799,801,800,-1,800,801,803,-1,800,803,827,-1,827,803,825,-1,827,825,821,-1,821,825,826,-1,821,826,808,-1,808,826,605,-1,759,602,811,-1,811,602,837,-1,811,837,798,-1,774,773,831,-1,831,773,772,-1,831,772,836,-1,836,772,771,-1,836,771,770,-1,798,800,811,-1,811,800,832,-1,811,832,812,-1,812,832,833,-1,812,833,813,-1,813,833,834,-1,813,834,814,-1,814,834,835,-1,814,835,815,-1,815,835,836,-1,815,836,816,-1,816,836,770,-1,816,770,769,-1,782,783,838,-1,839,840,841,-1,531,842,843,-1,844,842,531,-1,841,840,531,-1,788,531,840,-1,845,790,789,-1,790,845,791,-1,791,845,846,-1,791,846,792,-1,792,846,847,-1,792,847,793,-1,793,847,848,-1,793,848,797,-1,797,848,796,-1,796,848,849,-1,796,849,795,-1,795,849,794,-1,794,849,850,-1,794,850,601,-1,851,844,531,-1,784,785,839,-1,839,785,786,-1,839,786,840,-1,840,786,787,-1,840,787,788,-1,852,843,853,-1,853,843,842,-1,853,842,854,-1,854,842,844,-1,854,844,855,-1,851,856,844,-1,844,856,857,-1,844,857,855,-1,855,857,858,-1,855,858,859,-1,838,852,860,-1,860,852,853,-1,860,853,861,-1,861,853,854,-1,861,854,862,-1,862,854,855,-1,862,855,863,-1,863,855,859,-1,780,781,864,-1,864,781,782,-1,782,838,864,-1,864,838,860,-1,864,860,865,-1,865,860,861,-1,865,861,866,-1,866,861,862,-1,866,862,867,-1,867,862,863,-1,867,863,868,-1,783,784,838,-1,838,784,839,-1,838,839,852,-1,852,839,841,-1,852,841,843,-1,843,841,531,-1,780,845,779,-1,779,845,789,-1,779,789,589,-1,859,869,863,-1,863,869,870,-1,863,870,868,-1,868,870,871,-1,868,871,872,-1,780,864,845,-1,845,864,865,-1,845,865,846,-1,846,865,866,-1,846,866,847,-1,847,866,867,-1,847,867,848,-1,848,867,868,-1,848,868,849,-1,849,868,872,-1,849,872,850,-1,851,810,856,-1,856,810,820,-1,856,820,857,-1,857,820,819,-1,857,819,858,-1,858,819,818,-1,858,818,859,-1,859,818,817,-1,859,817,869,-1,869,817,802,-1,869,802,870,-1,870,802,801,-1,870,801,871,-1,871,801,799,-1,871,799,872,-1,872,799,798,-1,872,798,850,-1,850,798,837,-1,850,837,601,-1,601,837,602,-1,851,531,538,-1,851,538,810,-1,810,538,607,-1,810,607,605,-1,
        ]
    }
}
Shape{
    appearance Appearance {
        material  Material 	{
            diffuseColor 0.6666666666666666 0.6980392156862745 0.7686274509803922
            specularColor 0.3333333333333333 0.34901960784313724 0.3843137254901961
            ambientIntensity 0.2
            transparency 0
            shininess 0.5
        }
    }
    geometry IndexedFaceSet {
        ccw TRUE
        solid FALSE
        coord DEF co Coordinate {
            point [
                0.6496 0.315 -0.0827, 0.6496 -0.315 -0.0827, 0.6496 0.315 -0.0787, 0.6496 -0.315 -0.0787, 0.9449 -0.315 0.0, 0.9449 0.315 0.0, 0.7776 -0.315 0.0, 0.7776 0.315 0.0, 0.9449 0.315 -0.0827, 0.9449 -0.315 -0.0827, 0.7776 0.315 -0.0787, 0.7776 -0.315 -0.0787, -0.6496 -0.315 -0.0827, -0.6496 0.315 -0.0827, -0.6496 -0.315 -0.0787, -0.6496 0.315 -0.0787, -0.7776 0.315 0.0, -0.9449 0.315 0.0, -0.7776 -0.315 0.0, -0.9449 -0.315 0.0, -0.7776 0.315 -0.0787, -0.9449 0.315 -0.0827, -0.9449 -0.315 -0.0827, -0.7776 -0.315 -0.0787, -0.7776 -0.315 -0.0787
            ]
        }
        coordIndex [
            0,1,2,-1,2,1,3,-1,4,5,6,-1,6,5,7,-1,8,5,9,-1,9,5,4,-1,0,2,10,-1,7,5,10,-1,10,5,8,-1,10,8,0,-1,3,1,11,-1,11,1,9,-1,11,9,6,-1,6,9,4,-1,1,0,9,-1,9,0,8,-1,12,13,14,-1,14,13,15,-1,16,17,18,-1,18,17,19,-1,15,13,20,-1,20,13,21,-1,20,21,16,-1,16,21,17,-1,22,19,21,-1,21,19,17,-1,12,14,23,-1,18,19,23,-1,23,19,22,-1,23,22,12,-1,22,21,12,-1,12,21,13,-1,
        ]
    }
}
Shape{
    appearance Appearance {
        material  Material 	{
            diffuseColor 1.0 1.0 1.0
            specularColor 0.5019607843137255 0.5019607843137255 0.5019607843137255
            ambientIntensity 0.2
            transparency 0
            shininess 0.5
        }
    }
    geometry IndexedFaceSet {
        ccw TRUE
        solid FALSE
        coord DEF co Coordinate {
            point [
                -0.4428 0.4465 0.311, -0.4428 -0.4465 0.311, -0.4428 0.4465 0.315, -0.4428 -0.4465 0.315, -0.5614 -0.4465 0.311, -0.5614 -0.4465 0.315, -0.5614 0.4465 0.311, -0.5614 0.4465 0.315, 0.4604 -0.3074 0.3189, 0.4604 -0.3135 0.3189, 0.4604 -0.3074 0.315, 0.4604 -0.3135 0.315, 0.4391 -0.3074 0.3189, 0.4391 -0.3074 0.315, 0.4391 -0.2601 0.3189, 0.4391 -0.2601 0.315, 0.4322 -0.2601 0.3189, 0.4322 -0.2601 0.315, 0.4322 -0.3135 0.3189, 0.4322 -0.3135 0.315, 0.4877 -0.3144 0.3189, 0.4877 -0.3144 0.315, 0.4959 -0.3136 0.3189, 0.4924 -0.3139 0.315, 0.4959 -0.3136 0.315, 0.5016 -0.3117 0.315, 0.5016 -0.3117 0.3189, 0.5025 -0.3112 0.315, 0.5025 -0.3112 0.3189, 0.5025 -0.3046 0.3189, 0.5025 -0.3046 0.315, 0.4973 -0.307 0.315, 0.4973 -0.307 0.3189, 0.4912 -0.3081 0.315, 0.4912 -0.3081 0.3189, 0.4887 -0.3082 0.315, 0.4887 -0.3082 0.3189, 0.4833 -0.3076 0.315, 0.4833 -0.3076 0.3189, 0.4795 -0.3061 0.315, 0.4795 -0.3061 0.3189, 0.476 -0.3036 0.315, 0.476 -0.3036 0.3189, 0.475 -0.3026 0.315, 0.475 -0.3026 0.3189, 0.4724 -0.299 0.315, 0.4724 -0.299 0.3189, 0.4707 -0.2947 0.315, 0.4707 -0.2947 0.3189, 0.4698 -0.2893 0.315, 0.4698 -0.2893 0.3189, 0.4698 -0.2874 0.315, 0.4698 -0.2874 0.3189, 0.4705 -0.2806 0.315, 0.4705 -0.2806 0.3189, 0.4722 -0.2759 0.315, 0.4722 -0.2759 0.3189, 0.4747 -0.2721 0.315, 0.4747 -0.2721 0.3189, 0.4754 -0.2713 0.315, 0.4754 -0.2713 0.3189, 0.479 -0.2683 0.315, 0.479 -0.2683 0.3189, 0.4832 -0.2664 0.315, 0.4832 -0.2664 0.3189, 0.4879 -0.2655 0.315, 0.4879 -0.2655 0.3189, 0.4899 -0.2654 0.315, 0.4899 -0.2654 0.3189, 0.4965 -0.2662 0.315, 0.4965 -0.2662 0.3189, 0.5019 -0.2682 0.315, 0.5019 -0.2682 0.3189, 0.5025 -0.2686 0.315, 0.5025 -0.2686 0.3189, 0.5025 -0.2614 0.3189, 0.5025 -0.2614 0.315, 0.4899 -0.2592 0.315, 0.4899 -0.2592 0.3189, 0.49 -0.2592 0.3189, 0.497 -0.2597 0.315, 0.497 -0.2597 0.3189, 0.4955 -0.2596 0.315, 0.49 -0.2592 0.315, 0.4862 -0.2596 0.315, 0.4821 -0.2601 0.3189, 0.4821 -0.2601 0.315, 0.4765 -0.2623 0.315, 0.4765 -0.2623 0.3189, 0.4715 -0.2658 0.315, 0.4715 -0.2658 0.3189, 0.4703 -0.267 0.315, 0.4703 -0.267 0.3189, 0.4664 -0.2721 0.315, 0.4649 -0.2755 0.315, 0.4638 -0.278 0.3189, 0.4664 -0.2721 0.3189, 0.4638 -0.278 0.315, 0.4626 -0.285 0.315, 0.4626 -0.285 0.3189, 0.4625 -0.2878 0.315, 0.4625 -0.2878 0.3189, 0.4634 -0.2957 0.315, 0.4634 -0.2957 0.3189, 0.4649 -0.3 0.315, 0.4655 -0.3015 0.3189, 0.4655 -0.3015 0.315, 0.4686 -0.3061 0.315, 0.4686 -0.3061 0.3189, 0.4694 -0.3071 0.315, 0.4694 -0.3071 0.3189, 0.4845 -0.3142 0.3189, 0.4737 -0.3106 0.315, 0.4737 -0.3106 0.3189, 0.4787 -0.313 0.315, 0.4787 -0.313 0.3189, 0.4831 -0.3139 0.315, 0.4845 -0.3142 0.315, 0.5419 -0.3074 0.3189, 0.5419 -0.3135 0.3189, 0.5419 -0.3074 0.315, 0.5419 -0.3135 0.315, 0.5201 -0.3074 0.315, 0.5201 -0.3074 0.3189, 0.5345 -0.3074 0.315, 0.5201 -0.2894 0.3189, 0.5201 -0.2894 0.315, 0.5392 -0.2894 0.3189, 0.5345 -0.2894 0.315, 0.5392 -0.2894 0.315, 0.5392 -0.2833 0.3189, 0.5392 -0.2833 0.315, 0.5201 -0.2833 0.315, 0.5201 -0.2833 0.3189, 0.5345 -0.2833 0.315, 0.5201 -0.2662 0.3189, 0.5201 -0.2662 0.315, 0.5407 -0.2662 0.3189, 0.5345 -0.2662 0.315, 0.5407 -0.2662 0.315, 0.5407 -0.2601 0.3189, 0.5407 -0.2601 0.315, 0.5132 -0.2601 0.315, 0.5132 -0.2601 0.3189, 0.5345 -0.2601 0.315, 0.5132 -0.3135 0.3189, 0.5132 -0.3135 0.315, 0.5345 -0.3135 0.315, 0.5852 -0.2985 0.3189, 0.5825 -0.3018 0.3189, 0.5874 -0.306 0.3189, 0.5815 -0.3027 0.3189, 0.5819 -0.3099 0.3189, 0.578 -0.305 0.3189, 0.5758 -0.3123 0.3189, 0.5734 -0.3066 0.3189, 0.5667 -0.3135 0.3189, 0.5666 -0.3074 0.3189, 0.552 -0.3135 0.3189, 0.5589 -0.3074 0.3189, 0.552 -0.2601 0.3189, 0.5589 -0.2662 0.3189, 0.5672 -0.2601 0.3189, 0.5669 -0.2662 0.3189, 0.5754 -0.261 0.3189, 0.5738 -0.267 0.3189, 0.5818 -0.2633 0.3189, 0.5784 -0.2686 0.3189, 0.5874 -0.2671 0.3189, 0.5823 -0.2712 0.3189, 0.5892 -0.2689 0.3189, 0.5841 -0.273 0.3189, 0.5925 -0.2736 0.3189, 0.5861 -0.2761 0.3189, 0.5945 -0.2787 0.3189, 0.5875 -0.2801 0.3189, 0.5954 -0.2861 0.3189, 0.5882 -0.2863 0.3189, 0.5953 -0.2895 0.3189, 0.588 -0.2897 0.3189, 0.594 -0.2957 0.3189, 0.587 -0.2945 0.3189, 0.5914 -0.3012 0.3189, 0.5667 -0.3135 0.315, 0.552 -0.3135 0.315, 0.5874 -0.306 0.315, 0.5758 -0.3123 0.315, 0.5764 -0.3121 0.315, 0.5819 -0.3099 0.315, 0.5914 -0.3012 0.315, 0.594 -0.2957 0.315, 0.5953 -0.2895 0.315, 0.5954 -0.2861 0.315, 0.5945 -0.2787 0.315, 0.5925 -0.2736 0.315, 0.5892 -0.2689 0.315, 0.5874 -0.2671 0.315, 0.5672 -0.2601 0.315, 0.5818 -0.2633 0.315, 0.5764 -0.2614 0.315, 0.5754 -0.261 0.315, 0.552 -0.2601 0.315, 0.5669 -0.2662 0.315, 0.5589 -0.2662 0.315, 0.5589 -0.3074 0.315, 0.5666 -0.3074 0.315, 0.5825 -0.3018 0.315, 0.5815 -0.3027 0.315, 0.578 -0.305 0.315, 0.5734 -0.3066 0.315, 0.5882 -0.2863 0.315, 0.588 -0.2897 0.315, 0.587 -0.2945 0.315, 0.5852 -0.2985 0.315, 0.5823 -0.2712 0.315, 0.5841 -0.273 0.315, 0.5861 -0.2761 0.315, 0.5875 -0.2801 0.315, 0.5738 -0.267 0.315, 0.5784 -0.2686 0.315, 0.5784 -0.2686 0.315
            ]
        }
        coordIndex [
            0,1,2,-1,2,1,3,-1,1,4,3,-1,3,4,5,-1,4,6,5,-1,5,6,7,-1,6,0,7,-1,7,0,2,-1,6,4,0,-1,0,4,1,-1,8,9,10,-1,10,9,11,-1,12,8,13,-1,13,8,10,-1,14,12,15,-1,15,12,13,-1,16,14,17,-1,17,14,15,-1,18,16,19,-1,19,16,17,-1,9,18,11,-1,11,18,19,-1,14,16,12,-1,12,16,18,-1,12,18,8,-1,8,18,9,-1,20,21,22,-1,22,21,23,-1,23,24,22,-1,22,24,25,-1,22,25,26,-1,26,25,27,-1,26,27,28,-1,29,28,30,-1,30,28,27,-1,29,30,31,-1,29,31,32,-1,32,31,33,-1,32,33,34,-1,34,33,35,-1,34,35,36,-1,36,35,37,-1,36,37,38,-1,38,37,39,-1,38,39,40,-1,40,39,41,-1,40,41,42,-1,42,41,43,-1,42,43,44,-1,44,43,45,-1,44,45,46,-1,46,45,47,-1,46,47,48,-1,48,47,49,-1,48,49,50,-1,50,49,51,-1,50,51,52,-1,52,51,53,-1,52,53,54,-1,54,53,55,-1,54,55,56,-1,56,55,57,-1,56,57,58,-1,58,57,59,-1,58,59,60,-1,60,59,61,-1,60,61,62,-1,62,61,63,-1,62,63,64,-1,64,63,65,-1,64,65,66,-1,66,65,67,-1,66,67,68,-1,68,67,69,-1,68,69,70,-1,70,69,71,-1,70,71,72,-1,72,71,73,-1,72,73,74,-1,75,74,76,-1,76,74,73,-1,77,78,79,-1,75,76,80,-1,75,80,81,-1,81,80,82,-1,81,82,79,-1,79,82,83,-1,79,83,77,-1,78,77,84,-1,78,84,85,-1,84,86,85,-1,85,86,87,-1,85,87,88,-1,88,87,89,-1,88,89,90,-1,90,89,91,-1,90,91,92,-1,92,91,93,-1,94,95,93,-1,93,95,96,-1,93,96,92,-1,94,97,95,-1,95,97,98,-1,95,98,99,-1,99,98,100,-1,99,100,101,-1,101,100,102,-1,101,102,103,-1,103,102,104,-1,103,104,105,-1,104,106,105,-1,105,106,107,-1,105,107,108,-1,108,107,109,-1,108,109,110,-1,21,20,111,-1,110,109,112,-1,110,112,113,-1,113,112,114,-1,113,114,115,-1,115,114,116,-1,115,116,111,-1,111,116,117,-1,111,117,21,-1,72,74,75,-1,54,56,96,-1,72,75,70,-1,70,75,81,-1,70,81,68,-1,68,81,79,-1,68,79,66,-1,66,79,78,-1,66,78,64,-1,64,78,85,-1,64,85,62,-1,28,29,26,-1,26,29,32,-1,26,32,22,-1,22,32,34,-1,22,34,20,-1,20,34,36,-1,20,36,111,-1,111,36,38,-1,111,38,115,-1,115,38,40,-1,115,40,113,-1,113,40,42,-1,113,42,110,-1,110,42,44,-1,110,44,108,-1,108,44,46,-1,108,46,105,-1,96,56,92,-1,85,88,62,-1,62,88,90,-1,62,90,60,-1,60,90,92,-1,60,92,58,-1,58,92,56,-1,101,52,99,-1,99,52,54,-1,99,54,95,-1,95,54,96,-1,105,46,103,-1,103,46,48,-1,103,48,101,-1,101,48,50,-1,101,50,52,-1,118,119,120,-1,120,119,121,-1,122,123,124,-1,124,123,118,-1,124,118,120,-1,125,123,126,-1,126,123,122,-1,125,126,127,-1,127,126,128,-1,127,128,129,-1,130,127,131,-1,131,127,129,-1,132,133,134,-1,134,133,130,-1,134,130,131,-1,135,133,136,-1,136,133,132,-1,135,136,137,-1,137,136,138,-1,137,138,139,-1,140,137,141,-1,141,137,139,-1,142,143,144,-1,144,143,140,-1,144,140,141,-1,145,143,146,-1,146,143,142,-1,145,146,119,-1,119,146,147,-1,119,147,121,-1,145,119,118,-1,118,123,145,-1,145,123,125,-1,145,125,143,-1,137,140,135,-1,135,140,143,-1,135,143,133,-1,133,143,125,-1,133,125,130,-1,130,125,127,-1,148,149,150,-1,150,149,151,-1,150,151,152,-1,152,151,153,-1,152,153,154,-1,154,153,155,-1,154,155,156,-1,156,155,157,-1,156,157,158,-1,158,157,159,-1,158,159,160,-1,160,159,161,-1,160,161,162,-1,162,161,163,-1,162,163,164,-1,164,163,165,-1,164,165,166,-1,166,165,167,-1,166,167,168,-1,168,167,169,-1,168,169,170,-1,170,169,171,-1,170,171,172,-1,172,171,173,-1,172,173,174,-1,174,173,175,-1,174,175,176,-1,176,175,177,-1,176,177,178,-1,178,177,179,-1,178,179,180,-1,180,179,181,-1,180,181,182,-1,182,181,148,-1,182,148,150,-1,156,158,183,-1,183,158,184,-1,185,150,152,-1,156,183,186,-1,156,186,154,-1,154,186,187,-1,154,187,152,-1,152,187,188,-1,152,188,185,-1,150,185,189,-1,150,189,182,-1,182,189,190,-1,182,190,180,-1,180,190,191,-1,180,191,178,-1,178,191,192,-1,178,192,176,-1,176,192,193,-1,176,193,174,-1,174,193,194,-1,174,194,172,-1,172,194,195,-1,172,195,170,-1,170,195,196,-1,170,196,168,-1,197,162,164,-1,168,196,198,-1,168,198,166,-1,166,198,199,-1,166,199,164,-1,164,199,200,-1,164,200,197,-1,160,162,201,-1,201,162,197,-1,158,160,184,-1,184,160,201,-1,163,161,202,-1,202,161,203,-1,161,159,203,-1,203,159,204,-1,159,157,204,-1,204,157,205,-1,149,206,207,-1,149,207,151,-1,151,207,208,-1,151,208,153,-1,153,208,209,-1,153,209,155,-1,155,209,205,-1,155,205,157,-1,177,210,211,-1,177,211,179,-1,179,211,212,-1,179,212,181,-1,181,212,213,-1,181,213,148,-1,148,213,206,-1,148,206,149,-1,169,214,215,-1,169,215,171,-1,171,215,216,-1,171,216,173,-1,173,216,217,-1,173,217,175,-1,175,217,210,-1,175,210,177,-1,163,202,218,-1,163,218,165,-1,165,218,219,-1,165,219,167,-1,167,219,214,-1,167,214,169,-1,
        ]
    }
}
Shape{
    appearance Appearance {
        material  Material 	{
            diffuseColor 0.2235294117647059 0.2235294117647059 0.2235294117647059
            specularColor 0.11372549019607843 0.11372549019607843 0.11372549019607843
            ambientIntensity 0.2
            transparency 0
            shininess 0.5
        }
    }
    geometry IndexedFaceSet {
        ccw TRUE
        solid FALSE
        coord DEF co Coordinate {
            point [
                0.5589 -0.2662 0.315, 0.5589 -0.3074 0.315, 0.5669 -0.2662 0.315, 0.5666 -0.3074 0.315, 0.5734 -0.3066 0.315, 0.578 -0.305 0.315, 0.5815 -0.3027 0.315, 0.5825 -0.3018 0.315, 0.5852 -0.2985 0.315, 0.587 -0.2945 0.315, 0.588 -0.2897 0.315, 0.5882 -0.2863 0.315, 0.5875 -0.2801 0.315, 0.5861 -0.2761 0.315, 0.5841 -0.273 0.315, 0.5823 -0.2712 0.315, 0.5738 -0.267 0.315, 0.5784 -0.2686 0.315, 0.5784 -0.2686 0.315
            ]
        }
        coordIndex [
            0,1,2,-1,2,1,3,-1,2,3,4,-1,4,5,2,-1,2,5,6,-1,2,6,7,-1,7,8,2,-1,2,8,9,-1,2,9,10,-1,10,11,2,-1,2,11,12,-1,2,12,13,-1,13,14,2,-1,2,14,15,-1,2,15,16,-1,16,15,17,-1,
        ]
    }
}
Shape{
    appearance Appearance {
        material  Material 	{
            diffuseColor 1.0 1.0 1.0
            specularColor 0.5019607843137255 0.5019607843137255 0.5019607843137255
            ambientIntensity 0.2
            transparency 0
            shininess 0.5
        }
    }
    geometry IndexedFaceSet {
        ccw TRUE
        solid FALSE
        coord DEF co Coordinate {
            point [
                0.6133 -0.2928 0.3189, 0.6112 -0.2989 0.3189, 0.6312 -0.2928 0.3189, 0.6334 -0.2989 0.3189, 0.6213 -0.2706 0.3189, 0.6187 -0.2601 0.3189, 0.5984 -0.3135 0.3189, 0.606 -0.3135 0.3189, 0.6218 -0.269 0.3189, 0.6222 -0.2669 0.3189, 0.6261 -0.2601 0.3189, 0.6224 -0.2669 0.3189, 0.6228 -0.2692 0.3189, 0.6232 -0.2706 0.3189, 0.6464 -0.3135 0.3189, 0.6388 -0.3135 0.3189, 0.6261 -0.2601 0.315, 0.6464 -0.3135 0.315, 0.6187 -0.2601 0.315, 0.5984 -0.3135 0.315, 0.6138 -0.2731 0.315, 0.606 -0.3135 0.315, 0.6112 -0.2989 0.315, 0.6334 -0.2989 0.315, 0.6138 -0.2989 0.315, 0.6388 -0.3135 0.315, 0.6133 -0.2928 0.315, 0.6312 -0.2928 0.315, 0.6232 -0.2706 0.315, 0.6224 -0.2669 0.315, 0.6228 -0.2692 0.315, 0.6222 -0.2669 0.315, 0.6213 -0.2706 0.315, 0.6218 -0.269 0.315, 0.6218 -0.269 0.315
            ]
        }
        coordIndex [
            0,1,2,-1,2,1,3,-1,4,5,0,-1,0,5,6,-1,0,6,1,-1,1,6,7,-1,4,8,5,-1,5,8,9,-1,5,9,10,-1,10,9,11,-1,10,11,12,-1,12,13,10,-1,10,13,2,-1,10,2,14,-1,14,2,3,-1,14,3,15,-1,10,14,16,-1,16,14,17,-1,5,10,18,-1,18,10,16,-1,19,6,20,-1,20,6,5,-1,20,5,18,-1,7,6,21,-1,21,6,19,-1,1,7,22,-1,22,7,21,-1,23,3,24,-1,24,3,1,-1,24,1,22,-1,15,3,25,-1,25,3,23,-1,14,15,17,-1,17,15,25,-1,0,2,26,-1,26,2,27,-1,2,13,27,-1,27,13,28,-1,11,29,30,-1,11,30,12,-1,12,30,28,-1,12,28,13,-1,11,9,29,-1,29,9,31,-1,4,32,33,-1,4,33,8,-1,8,33,31,-1,8,31,9,-1,4,0,32,-1,32,0,26,-1,
        ]
    }
}
Shape{
    appearance Appearance {
        material  Material 	{
            diffuseColor 0.2235294117647059 0.2235294117647059 0.2235294117647059
            specularColor 0.11372549019607843 0.11372549019607843 0.11372549019607843
            ambientIntensity 0.2
            transparency 0
            shininess 0.5
        }
    }
    geometry IndexedFaceSet {
        ccw TRUE
        solid FALSE
        coord DEF co Coordinate {
            point [
                0.6224 -0.2669 0.315, 0.6222 -0.2669 0.315, 0.6228 -0.2692 0.315, 0.6218 -0.269 0.315, 0.6232 -0.2706 0.315, 0.6213 -0.2706 0.315, 0.6312 -0.2928 0.315, 0.6133 -0.2928 0.315, 0.6133 -0.2928 0.315
            ]
        }
        coordIndex [
            0,1,2,-1,2,1,3,-1,2,3,4,-1,4,3,5,-1,4,5,6,-1,6,5,7,-1,
        ]
    }
}
Shape{
    appearance Appearance {
        material  Material 	{
            diffuseColor 1.0 1.0 1.0
            specularColor 0.5019607843137255 0.5019607843137255 0.5019607843137255
            ambientIntensity 0.2
            transparency 0
            shininess 0.5
        }
    }
    geometry IndexedFaceSet {
        ccw TRUE
        solid FALSE
        coord DEF co Coordinate {
            point [
                0.4609 -0.3921 0.3189, 0.4609 -0.3981 0.3189, 0.4609 -0.3921 0.315, 0.4609 -0.3981 0.315, 0.4391 -0.3921 0.3189, 0.4391 -0.3921 0.315, 0.4391 -0.3741 0.3189, 0.4391 -0.3741 0.315, 0.4582 -0.3741 0.3189, 0.4582 -0.3741 0.315, 0.4582 -0.368 0.3189, 0.4582 -0.368 0.315, 0.4391 -0.368 0.3189, 0.4391 -0.368 0.315, 0.4391 -0.3509 0.3189, 0.4391 -0.3509 0.315, 0.4597 -0.3509 0.3189, 0.4597 -0.3509 0.315, 0.4597 -0.3448 0.3189, 0.4597 -0.3448 0.315, 0.4322 -0.3448 0.3189, 0.4322 -0.3448 0.315, 0.4322 -0.3981 0.3189, 0.4322 -0.3981 0.315, 0.4823 -0.3802 0.3189, 0.4913 -0.379 0.3189, 0.498 -0.3736 0.3189, 0.4913 -0.3981 0.3189, 0.498 -0.3981 0.3189, 0.4913 -0.3922 0.3189, 0.4913 -0.3739 0.3189, 0.4768 -0.3819 0.3189, 0.4784 -0.3811 0.3189, 0.4911 -0.3922 0.3189, 0.4877 -0.3912 0.3189, 0.4899 -0.394 0.3189, 0.4858 -0.3925 0.3189, 0.4913 -0.3827 0.3189, 0.4909 -0.386 0.3189, 0.4899 -0.3884 0.3189, 0.4884 -0.3904 0.3189, 0.4747 -0.3901 0.3189, 0.4697 -0.3951 0.3189, 0.4755 -0.3913 0.3189, 0.4706 -0.396 0.3189, 0.476 -0.3918 0.3189, 0.4727 -0.3975 0.3189, 0.4774 -0.3927 0.3189, 0.4752 -0.3985 0.3189, 0.4789 -0.3933 0.3189, 0.4784 -0.399 0.3189, 0.4794 -0.399 0.3189, 0.4811 -0.3936 0.3189, 0.4826 -0.3987 0.3189, 0.4838 -0.3932 0.3189, 0.4853 -0.3978 0.3189, 0.4878 -0.3962 0.3189, 0.491 -0.371 0.3189, 0.4974 -0.3685 0.3189, 0.4904 -0.3686 0.3189, 0.4964 -0.3654 0.3189, 0.4896 -0.3672 0.3189, 0.495 -0.3633 0.3189, 0.4886 -0.3661 0.3189, 0.4932 -0.3616 0.3189, 0.4874 -0.3654 0.3189, 0.491 -0.3603 0.3189, 0.4859 -0.3648 0.3189, 0.4881 -0.3595 0.3189, 0.4835 -0.3646 0.3189, 0.4842 -0.3591 0.3189, 0.4799 -0.3649 0.3189, 0.4773 -0.36 0.3189, 0.4757 -0.3663 0.3189, 0.4724 -0.3619 0.3189, 0.471 -0.3692 0.3189, 0.471 -0.3627 0.3189, 0.4742 -0.3863 0.3189, 0.4673 -0.3871 0.3189, 0.4741 -0.3874 0.3189, 0.4673 -0.3879 0.3189, 0.4743 -0.3889 0.3189, 0.4676 -0.3909 0.3189, 0.4684 -0.3932 0.3189, 0.48 -0.3755 0.3189, 0.4749 -0.3767 0.3189, 0.4759 -0.3826 0.3189, 0.4721 -0.3782 0.3189, 0.4751 -0.3835 0.3189, 0.47 -0.38 0.3189, 0.4745 -0.3848 0.3189, 0.4687 -0.3819 0.3189, 0.4678 -0.3843 0.3189, 0.4842 -0.3591 0.315, 0.4773 -0.36 0.315, 0.4724 -0.3619 0.315, 0.471 -0.3627 0.315, 0.471 -0.3692 0.315, 0.4757 -0.3663 0.315, 0.4799 -0.3649 0.315, 0.4835 -0.3646 0.315, 0.4859 -0.3648 0.315, 0.4874 -0.3654 0.315, 0.4886 -0.3661 0.315, 0.4896 -0.3672 0.315, 0.4904 -0.3686 0.315, 0.491 -0.371 0.315, 0.4913 -0.3739 0.315, 0.48 -0.3755 0.315, 0.4749 -0.3767 0.315, 0.4721 -0.3782 0.315, 0.47 -0.38 0.315, 0.4687 -0.3819 0.315, 0.4678 -0.3843 0.315, 0.4673 -0.3871 0.315, 0.4673 -0.3879 0.315, 0.4676 -0.3909 0.315, 0.4684 -0.3932 0.315, 0.4697 -0.3951 0.315, 0.4706 -0.396 0.315, 0.4794 -0.399 0.315, 0.4727 -0.3975 0.315, 0.4752 -0.3985 0.315, 0.4756 -0.3986 0.315, 0.4784 -0.399 0.315, 0.4826 -0.3987 0.315, 0.483 -0.3986 0.315, 0.4853 -0.3978 0.315, 0.4878 -0.3962 0.315, 0.4899 -0.394 0.315, 0.4911 -0.3922 0.315, 0.4913 -0.3922 0.315, 0.4913 -0.3981 0.315, 0.498 -0.3981 0.315, 0.498 -0.3736 0.315, 0.4974 -0.3685 0.315, 0.4964 -0.3654 0.315, 0.495 -0.3633 0.315, 0.4932 -0.3616 0.315, 0.491 -0.3603 0.315, 0.4881 -0.3595 0.315, 0.4759 -0.3826 0.315, 0.4768 -0.3819 0.315, 0.4784 -0.3811 0.315, 0.4823 -0.3802 0.315, 0.4741 -0.3874 0.315, 0.4742 -0.3863 0.315, 0.4745 -0.3848 0.315, 0.4751 -0.3835 0.315, 0.476 -0.3918 0.315, 0.4755 -0.3913 0.315, 0.4747 -0.3901 0.315, 0.4743 -0.3889 0.315, 0.4811 -0.3936 0.315, 0.4789 -0.3933 0.315, 0.4774 -0.3927 0.315, 0.4884 -0.3904 0.315, 0.4877 -0.3912 0.315, 0.4858 -0.3925 0.315, 0.4838 -0.3932 0.315, 0.4913 -0.3827 0.315, 0.4909 -0.386 0.315, 0.4899 -0.3884 0.315, 0.4913 -0.379 0.315, 0.4913 -0.379 0.315
            ]
        }
        coordIndex [
            0,1,2,-1,2,1,3,-1,4,0,5,-1,5,0,2,-1,6,4,7,-1,7,4,5,-1,8,6,9,-1,9,6,7,-1,10,8,11,-1,11,8,9,-1,12,10,13,-1,13,10,11,-1,14,12,15,-1,15,12,13,-1,16,14,17,-1,17,14,15,-1,18,16,19,-1,19,16,17,-1,20,18,21,-1,21,18,19,-1,22,20,23,-1,23,20,21,-1,1,22,3,-1,3,22,23,-1,22,1,0,-1,0,4,22,-1,22,4,6,-1,22,6,20,-1,16,18,14,-1,14,18,20,-1,14,20,12,-1,12,20,6,-1,12,6,10,-1,10,6,8,-1,24,25,26,-1,27,28,29,-1,29,28,26,-1,30,31,32,-1,33,34,35,-1,35,34,36,-1,25,37,26,-1,26,37,38,-1,26,38,29,-1,29,38,39,-1,29,39,33,-1,33,39,40,-1,33,40,34,-1,41,42,43,-1,43,42,44,-1,43,44,45,-1,45,44,46,-1,45,46,47,-1,47,46,48,-1,47,48,49,-1,48,50,49,-1,49,50,51,-1,49,51,52,-1,52,51,53,-1,52,53,54,-1,54,53,55,-1,54,55,36,-1,36,55,56,-1,36,56,35,-1,32,24,30,-1,30,24,26,-1,30,26,57,-1,57,26,58,-1,57,58,59,-1,59,58,60,-1,59,60,61,-1,61,60,62,-1,61,62,63,-1,63,62,64,-1,63,64,65,-1,65,64,66,-1,65,66,67,-1,67,66,68,-1,67,68,69,-1,69,68,70,-1,69,70,71,-1,71,70,72,-1,71,72,73,-1,73,72,74,-1,73,74,75,-1,75,74,76,-1,77,78,79,-1,79,78,80,-1,79,80,81,-1,81,80,82,-1,81,82,41,-1,41,82,83,-1,41,83,42,-1,30,84,31,-1,31,84,85,-1,31,85,86,-1,86,85,87,-1,86,87,88,-1,88,87,89,-1,88,89,90,-1,90,89,91,-1,90,91,77,-1,77,91,92,-1,77,92,78,-1,70,93,94,-1,70,94,72,-1,72,94,95,-1,72,95,74,-1,74,95,96,-1,74,96,76,-1,75,76,97,-1,97,76,96,-1,75,97,98,-1,75,98,73,-1,73,98,99,-1,73,99,71,-1,71,99,100,-1,71,100,69,-1,69,100,101,-1,69,101,67,-1,67,101,102,-1,67,102,65,-1,65,102,103,-1,65,103,63,-1,63,103,104,-1,63,104,61,-1,61,104,105,-1,61,105,59,-1,59,105,106,-1,59,106,57,-1,57,106,107,-1,57,107,30,-1,84,30,108,-1,108,30,107,-1,84,108,109,-1,84,109,85,-1,85,109,110,-1,85,110,87,-1,87,110,111,-1,87,111,89,-1,89,111,112,-1,89,112,91,-1,91,112,113,-1,91,113,92,-1,92,113,114,-1,92,114,78,-1,78,114,115,-1,78,115,80,-1,80,115,116,-1,80,116,82,-1,82,116,117,-1,82,117,83,-1,83,117,118,-1,83,118,42,-1,42,118,119,-1,42,119,44,-1,120,51,50,-1,44,119,121,-1,44,121,46,-1,46,121,122,-1,46,122,48,-1,48,122,123,-1,48,123,50,-1,50,123,124,-1,50,124,120,-1,51,120,125,-1,51,125,53,-1,53,125,126,-1,53,126,55,-1,126,127,55,-1,55,127,128,-1,55,128,56,-1,56,128,129,-1,56,129,35,-1,35,129,130,-1,35,130,33,-1,29,33,131,-1,131,33,130,-1,27,29,132,-1,132,29,131,-1,28,27,133,-1,133,27,132,-1,26,28,134,-1,134,28,133,-1,26,134,135,-1,26,135,58,-1,58,135,136,-1,58,136,60,-1,60,136,137,-1,60,137,62,-1,62,137,138,-1,62,138,64,-1,64,138,139,-1,64,139,66,-1,66,139,140,-1,66,140,68,-1,68,140,93,-1,68,93,70,-1,86,141,142,-1,86,142,31,-1,31,142,143,-1,31,143,32,-1,32,143,144,-1,32,144,24,-1,79,145,146,-1,79,146,77,-1,77,146,147,-1,77,147,90,-1,90,147,148,-1,90,148,88,-1,88,148,141,-1,88,141,86,-1,45,149,150,-1,45,150,43,-1,43,150,151,-1,43,151,41,-1,41,151,152,-1,41,152,81,-1,81,152,145,-1,81,145,79,-1,52,153,154,-1,52,154,49,-1,49,154,155,-1,49,155,47,-1,47,155,149,-1,47,149,45,-1,40,156,157,-1,40,157,34,-1,34,157,158,-1,34,158,36,-1,36,158,159,-1,36,159,54,-1,54,159,153,-1,54,153,52,-1,37,160,161,-1,37,161,38,-1,38,161,162,-1,38,162,39,-1,39,162,156,-1,39,156,40,-1,37,25,160,-1,160,25,163,-1,25,24,163,-1,163,24,144,-1,
        ]
    }
}
Shape{
    appearance Appearance {
        material  Material 	{
            diffuseColor 0.2235294117647059 0.2235294117647059 0.2235294117647059
            specularColor 0.11372549019607843 0.11372549019607843 0.11372549019607843
            ambientIntensity 0.2
            transparency 0
            shininess 0.5
        }
    }
    geometry IndexedFaceSet {
        ccw TRUE
        solid FALSE
        coord DEF co Coordinate {
            point [
                0.4877 -0.3912 0.315, 0.4884 -0.3904 0.315, 0.4823 -0.3802 0.315, 0.4899 -0.3884 0.315, 0.4838 -0.3932 0.315, 0.4784 -0.3811 0.315, 0.4768 -0.3819 0.315, 0.4858 -0.3925 0.315, 0.4909 -0.386 0.315, 0.4913 -0.3827 0.315, 0.4913 -0.379 0.315, 0.4745 -0.3848 0.315, 0.4742 -0.3863 0.315, 0.4741 -0.3874 0.315, 0.4743 -0.3889 0.315, 0.4774 -0.3927 0.315, 0.4789 -0.3933 0.315, 0.476 -0.3918 0.315, 0.4811 -0.3936 0.315, 0.4759 -0.3826 0.315, 0.4751 -0.3835 0.315, 0.4747 -0.3901 0.315, 0.4755 -0.3913 0.315, 0.4755 -0.3913 0.315
            ]
        }
        coordIndex [
            0,1,2,-1,2,1,3,-1,4,5,6,-1,5,4,2,-1,2,4,7,-1,2,7,0,-1,3,8,2,-1,2,8,9,-1,2,9,10,-1,11,12,4,-1,4,12,13,-1,4,13,14,-1,15,16,17,-1,17,16,18,-1,17,18,4,-1,6,19,4,-1,4,19,20,-1,4,20,11,-1,14,21,4,-1,4,21,22,-1,4,22,17,-1,
        ]
    }
}
Shape{
    appearance Appearance {
        material  Material 	{
            diffuseColor 1.0 1.0 1.0
            specularColor 0.5019607843137255 0.5019607843137255 0.5019607843137255
            ambientIntensity 0.2
            transparency 0
            shininess 0.5
        }
    }
    geometry IndexedFaceSet {
        ccw TRUE
        solid FALSE
        coord DEF co Coordinate {
            point [
                0.507 -0.3899 0.315, 0.507 -0.3899 0.3189, 0.5094 -0.3914 0.3189, 0.518 -0.3936 0.3189, 0.518 -0.3936 0.315, 0.5136 -0.393 0.315, 0.5136 -0.393 0.3189, 0.5101 -0.3917 0.315, 0.5094 -0.3914 0.315, 0.507 -0.3968 0.3189, 0.507 -0.3968 0.315, 0.5101 -0.3979 0.315, 0.5117 -0.3984 0.3189, 0.5174 -0.399 0.315, 0.5174 -0.399 0.3189, 0.513 -0.3986 0.315, 0.5117 -0.3984 0.315, 0.5235 -0.3983 0.3189, 0.5211 -0.3986 0.315, 0.5235 -0.3983 0.315, 0.527 -0.3969 0.315, 0.527 -0.3969 0.3189, 0.5285 -0.396 0.315, 0.5285 -0.396 0.3189, 0.5305 -0.3942 0.315, 0.5305 -0.3942 0.3189, 0.5317 -0.3925 0.315, 0.5317 -0.3925 0.3189, 0.5325 -0.3903 0.315, 0.5325 -0.3903 0.3189, 0.5328 -0.3878 0.315, 0.5328 -0.3878 0.3189, 0.5324 -0.3851 0.315, 0.5324 -0.3851 0.3189, 0.5317 -0.3832 0.315, 0.5317 -0.3832 0.3189, 0.5305 -0.3815 0.315, 0.5305 -0.3815 0.3189, 0.5289 -0.38 0.315, 0.5289 -0.38 0.3189, 0.5245 -0.3776 0.315, 0.5245 -0.3776 0.3189, 0.5219 -0.3765 0.315, 0.5219 -0.3765 0.3189, 0.5178 -0.3747 0.315, 0.5178 -0.3747 0.3189, 0.5154 -0.3733 0.315, 0.5154 -0.3733 0.3189, 0.5148 -0.3725 0.315, 0.5148 -0.3725 0.3189, 0.5143 -0.3716 0.315, 0.5143 -0.3716 0.3189, 0.514 -0.3706 0.315, 0.514 -0.3706 0.3189, 0.5139 -0.3697 0.315, 0.5139 -0.3697 0.3189, 0.5141 -0.3686 0.315, 0.5141 -0.3686 0.3189, 0.5144 -0.3677 0.315, 0.5144 -0.3677 0.3189, 0.515 -0.3669 0.315, 0.515 -0.3669 0.3189, 0.516 -0.366 0.315, 0.516 -0.366 0.3189, 0.5175 -0.3652 0.315, 0.5175 -0.3652 0.3189, 0.5193 -0.3647 0.315, 0.5193 -0.3647 0.3189, 0.5212 -0.3646 0.315, 0.5212 -0.3646 0.3189, 0.5259 -0.3651 0.315, 0.5259 -0.3651 0.3189, 0.5297 -0.3666 0.315, 0.5297 -0.3666 0.3189, 0.5309 -0.3673 0.315, 0.5309 -0.3673 0.3189, 0.5309 -0.3608 0.3189, 0.5309 -0.3608 0.315, 0.5266 -0.3596 0.315, 0.5266 -0.3596 0.3189, 0.5219 -0.3591 0.315, 0.5219 -0.3591 0.3189, 0.5165 -0.3598 0.315, 0.5165 -0.3598 0.3189, 0.5129 -0.3612 0.315, 0.5129 -0.3612 0.3189, 0.5113 -0.3622 0.315, 0.5113 -0.3622 0.3189, 0.5101 -0.3633 0.315, 0.5093 -0.364 0.3189, 0.5093 -0.364 0.315, 0.5081 -0.3659 0.315, 0.5081 -0.3659 0.3189, 0.5073 -0.368 0.315, 0.5073 -0.368 0.3189, 0.5071 -0.3703 0.315, 0.5071 -0.3703 0.3189, 0.5074 -0.373 0.315, 0.5074 -0.373 0.3189, 0.5081 -0.375 0.315, 0.5081 -0.375 0.3189, 0.5089 -0.3763 0.315, 0.5089 -0.3763 0.3189, 0.5172 -0.3814 0.315, 0.5172 -0.3814 0.3189, 0.5132 -0.3796 0.3189, 0.51 -0.3775 0.315, 0.51 -0.3775 0.3189, 0.5101 -0.3775 0.315, 0.5132 -0.3796 0.315, 0.5216 -0.3832 0.315, 0.5216 -0.3832 0.3189, 0.5242 -0.3848 0.315, 0.5242 -0.3848 0.3189, 0.525 -0.3857 0.315, 0.525 -0.3857 0.3189, 0.5255 -0.3866 0.315, 0.5255 -0.3866 0.3189, 0.5258 -0.3876 0.315, 0.5258 -0.3876 0.3189, 0.5259 -0.3884 0.315, 0.5259 -0.3884 0.3189, 0.5258 -0.3897 0.315, 0.5258 -0.3897 0.3189, 0.5254 -0.3907 0.315, 0.5254 -0.3907 0.3189, 0.5248 -0.3915 0.315, 0.5248 -0.3915 0.3189, 0.5241 -0.3922 0.315, 0.5241 -0.3922 0.3189, 0.5235 -0.3926 0.315, 0.5235 -0.3926 0.3189, 0.5217 -0.3932 0.315, 0.5217 -0.3932 0.3189, 0.5183 -0.3936 0.315, 0.5183 -0.3936 0.3189, 0.5659 -0.36 0.3189, 0.5728 -0.36 0.3189, 0.5659 -0.36 0.315, 0.5728 -0.36 0.315, 0.5555 -0.3887 0.3189, 0.5555 -0.3887 0.315, 0.555 -0.3905 0.315, 0.555 -0.3905 0.3189, 0.5547 -0.3918 0.315, 0.5547 -0.3918 0.3189, 0.5545 -0.3918 0.3189, 0.5545 -0.3918 0.315, 0.5537 -0.3887 0.3189, 0.5537 -0.3887 0.315, 0.5437 -0.36 0.3189, 0.5469 -0.3693 0.315, 0.5437 -0.36 0.315, 0.5362 -0.36 0.3189, 0.5362 -0.36 0.315, 0.5512 -0.3981 0.3189, 0.5469 -0.3872 0.315, 0.5512 -0.3981 0.315, 0.5483 -0.405 0.315, 0.5483 -0.405 0.3189, 0.551 -0.3986 0.315, 0.5469 -0.4074 0.315, 0.5468 -0.4075 0.3189, 0.5468 -0.4075 0.315, 0.5456 -0.4089 0.315, 0.5456 -0.4089 0.3189, 0.5449 -0.4094 0.315, 0.5449 -0.4094 0.3189, 0.5434 -0.4101 0.315, 0.5434 -0.4101 0.3189, 0.5419 -0.4103 0.315, 0.5419 -0.4103 0.3189, 0.5414 -0.4104 0.315, 0.5414 -0.4104 0.3189, 0.539 -0.4101 0.315, 0.539 -0.4101 0.3189, 0.5376 -0.4096 0.315, 0.5376 -0.4096 0.3189, 0.5376 -0.4156 0.3189, 0.5376 -0.4156 0.315, 0.5403 -0.416 0.315, 0.5403 -0.416 0.3189, 0.5419 -0.4161 0.315, 0.5419 -0.4161 0.3189, 0.5447 -0.4158 0.315, 0.5447 -0.4158 0.3189, 0.5469 -0.4149 0.315, 0.5473 -0.4148 0.3189, 0.5473 -0.4148 0.315, 0.5496 -0.4131 0.315, 0.5496 -0.4131 0.3189, 0.55 -0.4128 0.315, 0.55 -0.4128 0.3189, 0.5524 -0.4099 0.315, 0.5524 -0.4099 0.3189, 0.5555 -0.4039 0.315, 0.5555 -0.4039 0.3189, 0.5576 -0.3986 0.315, 0.6087 -0.3921 0.3189, 0.6087 -0.3981 0.3189, 0.6087 -0.3921 0.315, 0.6087 -0.3981 0.315, 0.5869 -0.3921 0.3189, 0.5969 -0.3921 0.315, 0.5869 -0.3921 0.315, 0.5869 -0.3741 0.3189, 0.5869 -0.3741 0.315, 0.606 -0.3741 0.3189, 0.5969 -0.3741 0.315, 0.606 -0.3741 0.315, 0.606 -0.368 0.3189, 0.606 -0.368 0.315, 0.5869 -0.368 0.315, 0.5869 -0.368 0.3189, 0.5969 -0.368 0.315, 0.5869 -0.3509 0.3189, 0.5869 -0.3509 0.315, 0.6075 -0.3509 0.315, 0.6075 -0.3509 0.3189, 0.5969 -0.3509 0.315, 0.6075 -0.3448 0.3189, 0.6075 -0.3448 0.315, 0.58 -0.3448 0.315, 0.58 -0.3448 0.3189, 0.5969 -0.3448 0.315, 0.58 -0.3981 0.3189, 0.58 -0.3981 0.315, 0.5969 -0.3981 0.315, 0.652 -0.3832 0.3189, 0.6493 -0.3865 0.3189, 0.6542 -0.3907 0.3189, 0.6484 -0.3874 0.3189, 0.6487 -0.3946 0.3189, 0.6448 -0.3897 0.3189, 0.6427 -0.397 0.3189, 0.6403 -0.3913 0.3189, 0.6335 -0.3981 0.3189, 0.6335 -0.3921 0.3189, 0.6188 -0.3981 0.3189, 0.6257 -0.3921 0.3189, 0.6188 -0.3448 0.3189, 0.6257 -0.3509 0.3189, 0.6341 -0.3448 0.3189, 0.6338 -0.3509 0.3189, 0.6422 -0.3457 0.3189, 0.6407 -0.3517 0.3189, 0.6486 -0.348 0.3189, 0.6453 -0.3533 0.3189, 0.6542 -0.3518 0.3189, 0.6492 -0.3559 0.3189, 0.6561 -0.3536 0.3189, 0.6509 -0.3577 0.3189, 0.6594 -0.3583 0.3189, 0.653 -0.3608 0.3189, 0.6614 -0.3633 0.3189, 0.6544 -0.3648 0.3189, 0.6623 -0.3708 0.3189, 0.655 -0.371 0.3189, 0.6621 -0.3741 0.3189, 0.6549 -0.3743 0.3189, 0.6608 -0.3804 0.3189, 0.6538 -0.3792 0.3189, 0.6582 -0.3859 0.3189, 0.6335 -0.3981 0.315, 0.6188 -0.3981 0.315, 0.6427 -0.397 0.315, 0.6487 -0.3946 0.315, 0.6542 -0.3907 0.315, 0.6582 -0.3859 0.315, 0.6608 -0.3804 0.315, 0.6621 -0.3741 0.315, 0.6623 -0.3708 0.315, 0.6614 -0.3633 0.315, 0.6594 -0.3583 0.315, 0.6561 -0.3536 0.315, 0.6542 -0.3518 0.315, 0.6486 -0.348 0.315, 0.6422 -0.3457 0.315, 0.6341 -0.3448 0.315, 0.6188 -0.3448 0.315, 0.6338 -0.3509 0.315, 0.6257 -0.3509 0.315, 0.6257 -0.3921 0.315, 0.6335 -0.3921 0.315, 0.6493 -0.3865 0.315, 0.6484 -0.3874 0.315, 0.6448 -0.3897 0.315, 0.6403 -0.3913 0.315, 0.655 -0.371 0.315, 0.6549 -0.3743 0.315, 0.6538 -0.3792 0.315, 0.652 -0.3832 0.315, 0.6492 -0.3559 0.315, 0.6509 -0.3577 0.315, 0.653 -0.3608 0.315, 0.6544 -0.3648 0.315, 0.6407 -0.3517 0.315, 0.6453 -0.3533 0.315, 0.6453 -0.3533 0.315
            ]
        }
        coordIndex [
            0,1,2,-1,3,4,5,-1,3,5,6,-1,6,5,7,-1,6,7,2,-1,2,7,8,-1,2,8,0,-1,9,1,10,-1,10,1,0,-1,10,11,9,-1,9,11,12,-1,13,14,15,-1,15,14,12,-1,15,12,16,-1,16,12,11,-1,14,13,17,-1,17,13,18,-1,18,19,17,-1,17,19,20,-1,17,20,21,-1,21,20,22,-1,21,22,23,-1,23,22,24,-1,23,24,25,-1,25,24,26,-1,25,26,27,-1,27,26,28,-1,27,28,29,-1,29,28,30,-1,29,30,31,-1,31,30,32,-1,31,32,33,-1,33,32,34,-1,33,34,35,-1,35,34,36,-1,35,36,37,-1,37,36,38,-1,37,38,39,-1,39,38,40,-1,39,40,41,-1,41,40,42,-1,41,42,43,-1,43,42,44,-1,43,44,45,-1,45,44,46,-1,45,46,47,-1,47,46,48,-1,47,48,49,-1,49,48,50,-1,49,50,51,-1,51,50,52,-1,51,52,53,-1,53,52,54,-1,53,54,55,-1,55,54,56,-1,55,56,57,-1,57,56,58,-1,57,58,59,-1,59,58,60,-1,59,60,61,-1,61,60,62,-1,61,62,63,-1,63,62,64,-1,63,64,65,-1,65,64,66,-1,65,66,67,-1,67,66,68,-1,67,68,69,-1,69,68,70,-1,69,70,71,-1,71,70,72,-1,71,72,73,-1,73,72,74,-1,73,74,75,-1,76,75,77,-1,77,75,74,-1,76,77,78,-1,76,78,79,-1,79,78,80,-1,79,80,81,-1,81,80,82,-1,81,82,83,-1,83,82,84,-1,83,84,85,-1,85,84,86,-1,85,86,87,-1,86,88,87,-1,87,88,89,-1,88,90,89,-1,89,90,91,-1,89,91,92,-1,92,91,93,-1,92,93,94,-1,94,93,95,-1,94,95,96,-1,96,95,97,-1,96,97,98,-1,98,97,99,-1,98,99,100,-1,100,99,101,-1,100,101,102,-1,103,104,105,-1,102,101,106,-1,102,106,107,-1,107,106,108,-1,107,108,105,-1,105,108,109,-1,105,109,103,-1,104,103,110,-1,104,110,111,-1,111,110,112,-1,111,112,113,-1,113,112,114,-1,113,114,115,-1,115,114,116,-1,115,116,117,-1,117,116,118,-1,117,118,119,-1,119,118,120,-1,119,120,121,-1,121,120,122,-1,121,122,123,-1,123,122,124,-1,123,124,125,-1,125,124,126,-1,125,126,127,-1,127,126,128,-1,127,128,129,-1,129,128,130,-1,129,130,131,-1,131,130,132,-1,131,132,133,-1,133,132,134,-1,133,134,135,-1,135,134,4,-1,135,4,3,-1,59,61,87,-1,87,61,85,-1,85,61,63,-1,85,63,83,-1,125,25,27,-1,111,43,104,-1,104,43,45,-1,125,27,123,-1,123,27,29,-1,123,29,121,-1,121,29,31,-1,121,31,119,-1,119,31,33,-1,119,33,117,-1,117,33,35,-1,117,35,115,-1,115,35,37,-1,115,37,113,-1,113,37,39,-1,113,39,111,-1,111,39,41,-1,111,41,43,-1,25,125,23,-1,23,125,127,-1,23,127,21,-1,14,3,12,-1,12,3,6,-1,12,6,9,-1,9,6,2,-1,9,2,1,-1,63,65,83,-1,83,65,67,-1,83,67,81,-1,81,67,69,-1,81,69,79,-1,79,69,71,-1,79,71,76,-1,76,71,73,-1,76,73,75,-1,127,129,21,-1,21,129,131,-1,21,131,17,-1,17,131,133,-1,17,133,14,-1,14,133,135,-1,14,135,3,-1,87,89,59,-1,59,89,92,-1,59,92,57,-1,57,92,94,-1,57,94,55,-1,55,94,96,-1,55,96,53,-1,53,96,98,-1,53,98,51,-1,51,98,100,-1,51,100,49,-1,49,100,102,-1,49,102,47,-1,47,102,107,-1,47,107,45,-1,45,107,105,-1,45,105,104,-1,136,137,138,-1,138,137,139,-1,140,136,141,-1,141,136,138,-1,140,141,142,-1,140,142,143,-1,143,142,144,-1,143,144,145,-1,146,145,147,-1,147,145,144,-1,148,146,149,-1,149,146,147,-1,148,149,150,-1,150,149,151,-1,150,151,152,-1,153,150,154,-1,154,150,152,-1,153,154,155,-1,155,154,156,-1,155,156,157,-1,158,159,160,-1,160,159,155,-1,160,155,157,-1,158,161,159,-1,159,161,162,-1,161,163,162,-1,162,163,164,-1,162,164,165,-1,165,164,166,-1,165,166,167,-1,167,166,168,-1,167,168,169,-1,169,168,170,-1,169,170,171,-1,171,170,172,-1,171,172,173,-1,173,172,174,-1,173,174,175,-1,175,174,176,-1,175,176,177,-1,178,177,179,-1,179,177,176,-1,178,179,180,-1,178,180,181,-1,181,180,182,-1,181,182,183,-1,183,182,184,-1,183,184,185,-1,185,184,186,-1,185,186,187,-1,186,188,187,-1,187,188,189,-1,187,189,190,-1,190,189,191,-1,190,191,192,-1,192,191,193,-1,192,193,194,-1,194,193,195,-1,194,195,196,-1,139,137,197,-1,197,137,196,-1,197,196,195,-1,143,145,196,-1,175,177,178,-1,137,136,196,-1,196,136,140,-1,196,140,143,-1,150,153,148,-1,148,153,155,-1,148,155,146,-1,145,146,196,-1,196,146,155,-1,196,155,194,-1,175,178,173,-1,173,178,181,-1,173,181,171,-1,171,181,183,-1,171,183,169,-1,169,183,185,-1,169,185,167,-1,167,185,187,-1,167,187,165,-1,155,159,194,-1,194,159,162,-1,194,162,192,-1,192,162,165,-1,192,165,190,-1,190,165,187,-1,198,199,200,-1,200,199,201,-1,198,200,202,-1,202,200,203,-1,202,203,204,-1,205,202,206,-1,206,202,204,-1,205,206,207,-1,207,206,208,-1,207,208,209,-1,210,207,211,-1,211,207,209,-1,212,213,214,-1,214,213,210,-1,214,210,211,-1,215,213,216,-1,216,213,212,-1,217,218,219,-1,219,218,215,-1,219,215,216,-1,220,218,221,-1,221,218,217,-1,222,223,224,-1,224,223,220,-1,224,220,221,-1,225,223,226,-1,226,223,222,-1,225,226,199,-1,199,226,227,-1,199,227,201,-1,225,199,198,-1,198,202,225,-1,225,202,205,-1,225,205,223,-1,218,220,215,-1,215,220,223,-1,215,223,213,-1,213,223,205,-1,213,205,210,-1,210,205,207,-1,228,229,230,-1,230,229,231,-1,230,231,232,-1,232,231,233,-1,232,233,234,-1,234,233,235,-1,234,235,236,-1,236,235,237,-1,236,237,238,-1,238,237,239,-1,238,239,240,-1,240,239,241,-1,240,241,242,-1,242,241,243,-1,242,243,244,-1,244,243,245,-1,244,245,246,-1,246,245,247,-1,246,247,248,-1,248,247,249,-1,248,249,250,-1,250,249,251,-1,250,251,252,-1,252,251,253,-1,252,253,254,-1,254,253,255,-1,254,255,256,-1,256,255,257,-1,256,257,258,-1,258,257,259,-1,258,259,260,-1,260,259,261,-1,260,261,262,-1,262,261,228,-1,262,228,230,-1,236,238,263,-1,263,238,264,-1,236,263,265,-1,236,265,234,-1,234,265,266,-1,234,266,232,-1,232,266,267,-1,232,267,230,-1,230,267,268,-1,230,268,262,-1,262,268,269,-1,262,269,260,-1,260,269,270,-1,260,270,258,-1,258,270,271,-1,258,271,256,-1,256,271,272,-1,256,272,254,-1,254,272,273,-1,254,273,252,-1,252,273,274,-1,252,274,250,-1,250,274,275,-1,250,275,248,-1,248,275,276,-1,248,276,246,-1,246,276,277,-1,246,277,244,-1,244,277,278,-1,244,278,242,-1,240,242,279,-1,279,242,278,-1,238,240,264,-1,264,240,279,-1,243,241,280,-1,280,241,281,-1,241,239,281,-1,281,239,282,-1,239,237,282,-1,282,237,283,-1,229,284,285,-1,229,285,231,-1,231,285,286,-1,231,286,233,-1,233,286,287,-1,233,287,235,-1,235,287,283,-1,235,283,237,-1,257,288,289,-1,257,289,259,-1,259,289,290,-1,259,290,261,-1,261,290,291,-1,261,291,228,-1,228,291,284,-1,228,284,229,-1,249,292,293,-1,249,293,251,-1,251,293,294,-1,251,294,253,-1,253,294,295,-1,253,295,255,-1,255,295,288,-1,255,288,257,-1,243,280,296,-1,243,296,245,-1,245,296,297,-1,245,297,247,-1,247,297,292,-1,247,292,249,-1,
        ]
    }
}
Shape{
    appearance Appearance {
        material  Material 	{
            diffuseColor 0.2235294117647059 0.2235294117647059 0.2235294117647059
            specularColor 0.11372549019607843 0.11372549019607843 0.11372549019607843
            ambientIntensity 0.2
            transparency 0
            shininess 0.5
        }
    }
    geometry IndexedFaceSet {
        ccw TRUE
        solid FALSE
        coord DEF co Coordinate {
            point [
                0.6257 -0.3509 0.315, 0.6257 -0.3921 0.315, 0.6338 -0.3509 0.315, 0.6335 -0.3921 0.315, 0.6403 -0.3913 0.315, 0.6448 -0.3897 0.315, 0.6484 -0.3874 0.315, 0.6493 -0.3865 0.315, 0.652 -0.3832 0.315, 0.6538 -0.3792 0.315, 0.6549 -0.3743 0.315, 0.655 -0.371 0.315, 0.6544 -0.3648 0.315, 0.653 -0.3608 0.315, 0.6509 -0.3577 0.315, 0.6492 -0.3559 0.315, 0.6407 -0.3517 0.315, 0.6453 -0.3533 0.315, 0.6453 -0.3533 0.315
            ]
        }
        coordIndex [
            0,1,2,-1,2,1,3,-1,2,3,4,-1,4,5,2,-1,2,5,6,-1,2,6,7,-1,7,8,2,-1,2,8,9,-1,2,9,10,-1,10,11,2,-1,2,11,12,-1,2,12,13,-1,13,14,2,-1,2,14,15,-1,2,15,16,-1,16,15,17,-1,
        ]
    }
}
Shape{
    appearance Appearance {
        material  Material 	{
            diffuseColor 1.0 1.0 1.0
            specularColor 0.5019607843137255 0.5019607843137255 0.5019607843137255
            ambientIntensity 0.2
            transparency 0
            shininess 0.5
        }
    }
    geometry IndexedFaceSet {
        ccw TRUE
        solid FALSE
        coord DEF co Coordinate {
            point [
                0.6802 -0.3775 0.3189, 0.678 -0.3835 0.3189, 0.6981 -0.3775 0.3189, 0.7002 -0.3835 0.3189, 0.6882 -0.3553 0.3189, 0.6856 -0.3448 0.3189, 0.6653 -0.3981 0.3189, 0.6729 -0.3981 0.3189, 0.6886 -0.3537 0.3189, 0.689 -0.3516 0.3189, 0.693 -0.3448 0.3189, 0.6892 -0.3516 0.3189, 0.6896 -0.3538 0.3189, 0.69 -0.3553 0.3189, 0.7133 -0.3981 0.3189, 0.7057 -0.3981 0.3189, 0.693 -0.3448 0.315, 0.7133 -0.3981 0.315, 0.6856 -0.3448 0.315, 0.6653 -0.3981 0.315, 0.6729 -0.3981 0.315, 0.678 -0.3835 0.315, 0.7002 -0.3835 0.315, 0.7057 -0.3981 0.315, 0.6802 -0.3775 0.315, 0.6981 -0.3775 0.315, 0.69 -0.3553 0.315, 0.6892 -0.3516 0.315, 0.6896 -0.3538 0.315, 0.689 -0.3516 0.315, 0.6882 -0.3553 0.315, 0.6886 -0.3537 0.315, 0.6886 -0.3537 0.315
            ]
        }
        coordIndex [
            0,1,2,-1,2,1,3,-1,4,5,0,-1,0,5,6,-1,0,6,1,-1,1,6,7,-1,4,8,5,-1,5,8,9,-1,5,9,10,-1,10,9,11,-1,10,11,12,-1,12,13,10,-1,10,13,2,-1,10,2,14,-1,14,2,3,-1,14,3,15,-1,10,14,16,-1,16,14,17,-1,5,10,18,-1,18,10,16,-1,6,5,19,-1,19,5,18,-1,7,6,20,-1,20,6,19,-1,1,7,21,-1,21,7,20,-1,3,1,22,-1,22,1,21,-1,15,3,23,-1,23,3,22,-1,14,15,17,-1,17,15,23,-1,0,2,24,-1,24,2,25,-1,2,13,25,-1,25,13,26,-1,11,27,28,-1,11,28,12,-1,12,28,26,-1,12,26,13,-1,11,9,27,-1,27,9,29,-1,4,30,31,-1,4,31,8,-1,8,31,29,-1,8,29,9,-1,4,0,30,-1,30,0,24,-1,
        ]
    }
}
Shape{
    appearance Appearance {
        material  Material 	{
            diffuseColor 0.2235294117647059 0.2235294117647059 0.2235294117647059
            specularColor 0.11372549019607843 0.11372549019607843 0.11372549019607843
            ambientIntensity 0.2
            transparency 0
            shininess 0.5
        }
    }
    geometry IndexedFaceSet {
        ccw TRUE
        solid FALSE
        coord DEF co Coordinate {
            point [
                0.6892 -0.3516 0.315, 0.689 -0.3516 0.315, 0.6896 -0.3538 0.315, 0.6886 -0.3537 0.315, 0.69 -0.3553 0.315, 0.6882 -0.3553 0.315, 0.6981 -0.3775 0.315, 0.6802 -0.3775 0.315, 0.6802 -0.3775 0.315
            ]
        }
        coordIndex [
            0,1,2,-1,2,1,3,-1,2,3,4,-1,4,3,5,-1,4,5,6,-1,6,5,7,-1,
        ]
    }
}
Shape{
    appearance Appearance {
        material  Material 	{
            diffuseColor 1.0 1.0 1.0
            specularColor 0.5019607843137255 0.5019607843137255 0.5019607843137255
            ambientIntensity 0.2
            transparency 0
            shininess 0.5
        }
    }
    geometry IndexedFaceSet {
        ccw TRUE
        solid FALSE
        coord DEF co Coordinate {
            point [
                0.1964 -0.4057 0.3189, 0.2021 -0.4127 0.3189, 0.193 -0.3721 0.3189, 0.1865 -0.3061 0.3189, 0.195 -0.3017 0.3189, 0.1928 -0.2784 0.3189, 0.2667 -0.3854 0.3189, 0.2667 -0.3816 0.3189, 0.2345 -0.3723 0.3189, 0.2309 -0.3712 0.3189, 0.2078 -0.2765 0.3189, 0.2402 -0.3769 0.3189, 0.2419 -0.38 0.3189, 0.2665 -0.3893 0.3189, 0.3198 -0.3535 0.3189, 0.308 -0.3334 0.3189, 0.2572 -0.36 0.3189, 0.2283 -0.371 0.3189, 0.2247 -0.3714 0.3189, 0.2197 -0.3482 0.3189, 0.2214 -0.3727 0.3189, 0.2113 -0.3514 0.3189, 0.2184 -0.3748 0.3189, 0.2035 -0.3568 0.3189, 0.2166 -0.3768 0.3189, 0.1972 -0.364 0.3189, 0.2147 -0.38 0.3189, 0.2137 -0.3836 0.3189, 0.2425 -0.3496 0.3189, 0.2334 -0.3474 0.3189, 0.2287 -0.3471 0.3189, 0.2166 -0.2773 0.3189, 0.2283 -0.305 0.3189, 0.2333 -0.2942 0.3189, 0.1848 -0.3671 0.3189, 0.1878 -0.3961 0.3189, 0.1927 -0.3976 0.3189, 0.2376 -0.3743 0.3189, 0.2184 -0.3967 0.3189, 0.2214 -0.3989 0.3189, 0.2095 -0.4183 0.3189, 0.2249 -0.4002 0.3189, 0.2243 -0.2682 0.3189, 0.2416 -0.2838 0.3189, 0.2333 -0.2606 0.3189, 0.252 -0.2758 0.3189, 0.2425 -0.2548 0.3189, 0.2043 -0.2995 0.3189, 0.2082 -0.2993 0.3189, 0.2122 -0.2767 0.3189, 0.217 -0.3003 0.3189, 0.2255 -0.3034 0.3189, 0.2506 -0.354 0.3189, 0.3323 -0.316 0.3189, 0.3354 -0.316 0.3189, 0.3509 -0.2955 0.3189, 0.3426 -0.3169 0.3189, 0.3538 -0.2965 0.3189, 0.3492 -0.3194 0.3189, 0.365 -0.3023 0.3189, 0.3551 -0.3235 0.3189, 0.3751 -0.3112 0.3189, 0.3595 -0.3285 0.3189, 0.3826 -0.3222 0.3189, 0.363 -0.335 0.3189, 0.387 -0.3339 0.3189, 0.3648 -0.3423 0.3189, 0.3885 -0.3452 0.3189, 0.365 -0.3456 0.3189, 0.3884 -0.3476 0.3189, 0.3641 -0.3529 0.3189, 0.3161 -0.3981 0.3189, 0.3175 -0.3983 0.3189, 0.3206 -0.3752 0.3189, 0.26 -0.2481 0.3189, 0.2643 -0.2706 0.3189, 0.2788 -0.2458 0.3189, 0.3304 -0.2655 0.3189, 0.3185 -0.2859 0.3189, 0.3429 -0.2798 0.3189, 0.3263 -0.2968 0.3189, 0.3312 -0.3095 0.3189, 0.1714 -0.3281 0.3189, 0.1465 -0.3345 0.3189, 0.1703 -0.3372 0.3189, 0.1464 -0.338 0.3189, 0.1707 -0.343 0.3189, 0.1482 -0.353 0.3189, 0.1734 -0.3523 0.3189, 0.1537 -0.3671 0.3189, 0.178 -0.3601 0.3189, 0.1623 -0.3793 0.3189, 0.1741 -0.3894 0.3189, 0.216 -0.394 0.3189, 0.2144 -0.3908 0.3189, 0.2136 -0.3873 0.3189, 0.3376 -0.3752 0.3189, 0.3399 -0.3983 0.3189, 0.3444 -0.3739 0.3189, 0.3514 -0.396 0.3189, 0.3511 -0.3708 0.3189, 0.3631 -0.3907 0.3189, 0.3567 -0.3662 0.3189, 0.3731 -0.3827 0.3189, 0.3573 -0.3656 0.3189, 0.3744 -0.3812 0.3189, 0.3614 -0.3597 0.3189, 0.3814 -0.3719 0.3189, 0.3864 -0.36 0.3189, 0.1788 -0.2838 0.3189, 0.1667 -0.2923 0.3189, 0.1799 -0.312 0.3189, 0.1642 -0.2947 0.3189, 0.1746 -0.3196 0.3189, 0.155 -0.3065 0.3189, 0.149 -0.3202 0.3189, 0.2429 -0.3834 0.3189, 0.2431 -0.3871 0.3189, 0.2643 -0.3987 0.3189, 0.2423 -0.3908 0.3189, 0.2598 -0.4071 0.3189, 0.2406 -0.3941 0.3189, 0.2539 -0.4137 0.3189, 0.2382 -0.3968 0.3189, 0.2463 -0.419 0.3189, 0.2353 -0.3989 0.3189, 0.2379 -0.4222 0.3189, 0.232 -0.4002 0.3189, 0.2287 -0.4234 0.3189, 0.2283 -0.4006 0.3189, 0.2272 -0.4233 0.3189, 0.2183 -0.4219 0.3189, 0.2769 -0.2686 0.3189, 0.2792 -0.2685 0.3189, 0.2945 -0.2474 0.3189, 0.2908 -0.2698 0.3189, 0.3135 -0.2541 0.3189, 0.3028 -0.2741 0.3189, 0.3136 -0.2812 0.3189, 0.3066 -0.3854 0.3189, 0.3065 -0.3866 0.3189, 0.3186 -0.3748 0.3189, 0.3068 -0.3892 0.3189, 0.3078 -0.3917 0.3189, 0.3094 -0.3941 0.3189, 0.311 -0.3958 0.3189, 0.3198 -0.3751 0.3189, 0.3136 -0.3973 0.3189, 0.3183 -0.3748 0.3189, 0.3156 -0.3751 0.3189, 0.313 -0.3761 0.3189, 0.3106 -0.3776 0.3189, 0.3087 -0.3798 0.3189, 0.3073 -0.3825 0.3189, 0.377 -0.3139 0.315, 0.3826 -0.3222 0.315, 0.3854 -0.3296 0.315, 0.387 -0.3339 0.315, 0.3885 -0.3452 0.315, 0.3751 -0.3112 0.315, 0.365 -0.3023 0.315, 0.3538 -0.2965 0.315, 0.3509 -0.2955 0.315, 0.3429 -0.2798 0.315, 0.3304 -0.2655 0.315, 0.3217 -0.2596 0.315, 0.3135 -0.2541 0.315, 0.2945 -0.2474 0.315, 0.2788 -0.2458 0.315, 0.2333 -0.2606 0.315, 0.2348 -0.2596 0.315, 0.2425 -0.2548 0.315, 0.26 -0.2481 0.315, 0.2243 -0.2682 0.315, 0.2166 -0.2773 0.315, 0.2122 -0.2767 0.315, 0.2078 -0.2765 0.315, 0.1928 -0.2784 0.315, 0.1788 -0.2838 0.315, 0.1667 -0.2923 0.315, 0.1642 -0.2947 0.315, 0.155 -0.3065 0.315, 0.1517 -0.3139 0.315, 0.149 -0.3202 0.315, 0.1473 -0.3296 0.315, 0.1465 -0.3345 0.315, 0.1464 -0.338 0.315, 0.1482 -0.353 0.315, 0.1537 -0.3671 0.315, 0.1623 -0.3793 0.315, 0.1741 -0.3894 0.315, 0.1878 -0.3961 0.315, 0.1927 -0.3976 0.315, 0.1931 -0.3986 0.315, 0.1964 -0.4057 0.315, 0.2021 -0.4127 0.315, 0.2095 -0.4183 0.315, 0.213 -0.4197 0.315, 0.2183 -0.4219 0.315, 0.2272 -0.4233 0.315, 0.2287 -0.4234 0.315, 0.2667 -0.3854 0.315, 0.2379 -0.4222 0.315, 0.2444 -0.4197 0.315, 0.2463 -0.419 0.315, 0.2539 -0.4137 0.315, 0.2598 -0.4071 0.315, 0.2643 -0.3987 0.315, 0.2643 -0.3986 0.315, 0.2665 -0.3893 0.315, 0.2667 -0.3816 0.315, 0.3198 -0.3535 0.315, 0.308 -0.3334 0.315, 0.2572 -0.36 0.315, 0.2506 -0.354 0.315, 0.2425 -0.3496 0.315, 0.2334 -0.3474 0.315, 0.2287 -0.3471 0.315, 0.2197 -0.3482 0.315, 0.2113 -0.3514 0.315, 0.2035 -0.3568 0.315, 0.1972 -0.364 0.315, 0.193 -0.3721 0.315, 0.1848 -0.3671 0.315, 0.178 -0.3601 0.315, 0.1734 -0.3523 0.315, 0.1707 -0.343 0.315, 0.1703 -0.3372 0.315, 0.1712 -0.3296 0.315, 0.1714 -0.3281 0.315, 0.1746 -0.3196 0.315, 0.1786 -0.3139 0.315, 0.1799 -0.312 0.315, 0.1865 -0.3061 0.315, 0.195 -0.3017 0.315, 0.2043 -0.2995 0.315, 0.2082 -0.2993 0.315, 0.217 -0.3003 0.315, 0.2255 -0.3034 0.315, 0.2283 -0.305 0.315, 0.2333 -0.2942 0.315, 0.2416 -0.2838 0.315, 0.252 -0.2758 0.315, 0.2643 -0.2706 0.315, 0.2769 -0.2686 0.315, 0.2792 -0.2685 0.315, 0.3323 -0.316 0.315, 0.332 -0.3139 0.315, 0.3312 -0.3095 0.315, 0.3263 -0.2968 0.315, 0.3185 -0.2859 0.315, 0.3136 -0.2812 0.315, 0.3028 -0.2741 0.315, 0.2908 -0.2698 0.315, 0.3354 -0.316 0.315, 0.3426 -0.3169 0.315, 0.3492 -0.3194 0.315, 0.3551 -0.3235 0.315, 0.3595 -0.3285 0.315, 0.3601 -0.3296 0.315, 0.363 -0.335 0.315, 0.3648 -0.3423 0.315, 0.365 -0.3456 0.315, 0.3641 -0.3529 0.315, 0.3614 -0.3597 0.315, 0.3573 -0.3656 0.315, 0.3567 -0.3662 0.315, 0.3511 -0.3708 0.315, 0.3444 -0.3739 0.315, 0.3376 -0.3752 0.315, 0.3206 -0.3752 0.315, 0.3198 -0.3751 0.315, 0.3186 -0.3748 0.315, 0.3183 -0.3748 0.315, 0.3156 -0.3751 0.315, 0.313 -0.3761 0.315, 0.3106 -0.3776 0.315, 0.3087 -0.3798 0.315, 0.3073 -0.3825 0.315, 0.3066 -0.3854 0.315, 0.3065 -0.3866 0.315, 0.3068 -0.3892 0.315, 0.3078 -0.3917 0.315, 0.3094 -0.3941 0.315, 0.311 -0.3958 0.315, 0.3136 -0.3973 0.315, 0.3161 -0.3981 0.315, 0.3175 -0.3983 0.315, 0.3399 -0.3983 0.315, 0.3514 -0.396 0.315, 0.3631 -0.3907 0.315, 0.3731 -0.3827 0.315, 0.3744 -0.3812 0.315, 0.3814 -0.3719 0.315, 0.3864 -0.36 0.315, 0.3884 -0.3476 0.315, 0.2283 -0.371 0.315, 0.2309 -0.3712 0.315, 0.2345 -0.3723 0.315, 0.2376 -0.3743 0.315, 0.2402 -0.3769 0.315, 0.2419 -0.38 0.315, 0.2429 -0.3834 0.315, 0.2431 -0.3871 0.315, 0.2423 -0.3908 0.315, 0.2406 -0.3941 0.315, 0.2382 -0.3968 0.315, 0.2353 -0.3989 0.315, 0.232 -0.4002 0.315, 0.2283 -0.4006 0.315, 0.2249 -0.4002 0.315, 0.2214 -0.3989 0.315, 0.2184 -0.3967 0.315, 0.216 -0.394 0.315, 0.2144 -0.3908 0.315, 0.2136 -0.3873 0.315, 0.2137 -0.3836 0.315, 0.2147 -0.38 0.315, 0.2166 -0.3768 0.315, 0.2184 -0.3748 0.315, 0.2214 -0.3727 0.315, 0.2247 -0.3714 0.315, 0.2247 -0.3714 0.315
            ]
        }
        coordIndex [
            0,1,2,-1,3,4,5,-1,6,7,8,-1,8,7,9,-1,5,4,10,-1,11,12,13,-1,14,15,7,-1,7,15,16,-1,7,16,9,-1,9,16,17,-1,18,19,20,-1,20,19,21,-1,20,21,22,-1,22,21,23,-1,22,23,24,-1,24,23,25,-1,24,25,26,-1,26,25,2,-1,26,2,27,-1,28,29,18,-1,18,29,30,-1,18,30,19,-1,31,32,33,-1,34,35,2,-1,2,35,36,-1,2,36,0,-1,6,8,13,-1,13,8,37,-1,13,37,11,-1,38,1,39,-1,39,1,40,-1,39,40,41,-1,31,33,42,-1,42,33,43,-1,42,43,44,-1,44,43,45,-1,44,45,46,-1,4,47,10,-1,10,47,48,-1,10,48,49,-1,49,48,50,-1,49,50,31,-1,31,50,51,-1,31,51,32,-1,17,16,18,-1,18,16,52,-1,18,52,28,-1,53,54,55,-1,55,54,56,-1,55,56,57,-1,57,56,58,-1,57,58,59,-1,59,58,60,-1,59,60,61,-1,61,60,62,-1,61,62,63,-1,63,62,64,-1,63,64,65,-1,65,64,66,-1,65,66,67,-1,67,66,68,-1,67,68,69,-1,69,68,70,-1,71,72,73,-1,46,45,74,-1,74,45,75,-1,74,75,76,-1,77,78,79,-1,79,78,80,-1,79,80,55,-1,55,80,81,-1,55,81,53,-1,82,83,84,-1,84,83,85,-1,84,85,86,-1,86,85,87,-1,86,87,88,-1,88,87,89,-1,88,89,90,-1,90,89,91,-1,90,91,34,-1,34,91,92,-1,34,92,35,-1,38,93,1,-1,1,93,94,-1,1,94,2,-1,2,94,95,-1,2,95,27,-1,73,72,96,-1,96,72,97,-1,96,97,98,-1,98,97,99,-1,98,99,100,-1,100,99,101,-1,100,101,102,-1,102,101,103,-1,102,103,104,-1,104,103,105,-1,104,105,106,-1,106,105,107,-1,106,107,70,-1,70,107,108,-1,70,108,69,-1,5,109,3,-1,3,109,110,-1,3,110,111,-1,111,110,112,-1,111,112,113,-1,113,112,114,-1,113,114,82,-1,82,114,115,-1,82,115,83,-1,12,116,13,-1,13,116,117,-1,13,117,118,-1,118,117,119,-1,118,119,120,-1,120,119,121,-1,120,121,122,-1,122,121,123,-1,122,123,124,-1,124,123,125,-1,124,125,126,-1,126,125,127,-1,126,127,128,-1,128,127,129,-1,128,129,130,-1,130,129,41,-1,130,41,131,-1,131,41,40,-1,75,132,76,-1,76,132,133,-1,76,133,134,-1,134,133,135,-1,134,135,136,-1,136,135,137,-1,136,137,77,-1,77,137,138,-1,77,138,78,-1,139,140,141,-1,141,140,142,-1,142,143,141,-1,141,143,144,-1,141,144,145,-1,73,146,71,-1,71,146,141,-1,71,141,147,-1,147,141,145,-1,141,148,139,-1,139,148,149,-1,139,149,150,-1,150,151,139,-1,139,151,152,-1,139,152,153,-1,154,61,155,-1,155,61,63,-1,155,63,156,-1,156,63,65,-1,156,65,157,-1,157,65,67,-1,157,67,158,-1,154,159,61,-1,61,159,160,-1,61,160,59,-1,59,160,161,-1,59,161,57,-1,57,161,162,-1,57,162,55,-1,55,162,163,-1,55,163,79,-1,79,163,164,-1,79,164,77,-1,77,164,136,-1,136,164,165,-1,165,166,136,-1,136,166,167,-1,136,167,134,-1,134,167,168,-1,134,168,76,-1,169,44,170,-1,170,44,46,-1,170,46,171,-1,171,46,74,-1,171,74,172,-1,172,74,76,-1,172,76,168,-1,44,169,173,-1,44,173,42,-1,42,173,174,-1,42,174,31,-1,31,174,175,-1,31,175,49,-1,49,175,176,-1,49,176,10,-1,10,176,177,-1,10,177,5,-1,5,177,178,-1,5,178,109,-1,109,178,179,-1,109,179,110,-1,110,179,180,-1,110,180,112,-1,115,114,181,-1,181,114,112,-1,181,112,180,-1,181,182,115,-1,115,182,183,-1,115,183,83,-1,83,183,184,-1,184,185,83,-1,83,185,186,-1,83,186,85,-1,85,186,187,-1,85,187,87,-1,87,187,188,-1,87,188,89,-1,89,188,189,-1,89,189,91,-1,91,189,190,-1,91,190,92,-1,92,190,191,-1,92,191,35,-1,35,191,192,-1,35,192,36,-1,36,192,193,-1,36,193,0,-1,193,194,0,-1,0,194,195,-1,0,195,1,-1,1,195,196,-1,1,196,40,-1,40,196,197,-1,40,197,131,-1,197,198,131,-1,131,198,199,-1,131,199,130,-1,130,199,200,-1,130,200,128,-1,201,6,13,-1,128,200,202,-1,128,202,126,-1,126,202,203,-1,126,203,124,-1,203,204,124,-1,124,204,205,-1,124,205,122,-1,122,205,206,-1,122,206,120,-1,120,206,207,-1,120,207,118,-1,118,207,208,-1,118,208,13,-1,13,208,209,-1,13,209,201,-1,7,6,210,-1,210,6,201,-1,14,7,211,-1,211,7,210,-1,15,14,212,-1,212,14,211,-1,16,15,213,-1,213,15,212,-1,16,213,214,-1,16,214,52,-1,52,214,215,-1,52,215,28,-1,28,215,216,-1,28,216,29,-1,29,216,217,-1,29,217,30,-1,30,217,218,-1,30,218,19,-1,19,218,219,-1,19,219,21,-1,21,219,220,-1,21,220,23,-1,23,220,221,-1,23,221,25,-1,25,221,222,-1,25,222,2,-1,2,222,223,-1,2,223,34,-1,34,223,224,-1,34,224,90,-1,90,224,225,-1,90,225,88,-1,88,225,226,-1,88,226,86,-1,86,226,227,-1,86,227,84,-1,84,227,228,-1,84,228,82,-1,82,228,229,-1,82,229,230,-1,231,111,230,-1,230,111,113,-1,230,113,82,-1,231,232,111,-1,111,232,233,-1,111,233,3,-1,3,233,234,-1,3,234,4,-1,4,234,235,-1,4,235,47,-1,47,235,236,-1,47,236,48,-1,48,236,237,-1,48,237,50,-1,50,237,238,-1,50,238,51,-1,51,238,239,-1,51,239,32,-1,32,239,240,-1,32,240,33,-1,33,240,241,-1,33,241,43,-1,43,241,242,-1,43,242,45,-1,45,242,243,-1,45,243,75,-1,75,243,244,-1,75,244,132,-1,132,244,245,-1,132,245,133,-1,246,53,247,-1,247,53,81,-1,247,81,248,-1,248,81,80,-1,248,80,249,-1,249,80,78,-1,249,78,250,-1,250,78,138,-1,250,138,251,-1,251,138,137,-1,251,137,252,-1,252,137,135,-1,252,135,253,-1,253,135,133,-1,253,133,245,-1,54,53,254,-1,254,53,246,-1,54,254,255,-1,54,255,56,-1,56,255,256,-1,56,256,58,-1,58,256,257,-1,58,257,60,-1,60,257,258,-1,60,258,62,-1,62,258,259,-1,62,259,64,-1,259,260,64,-1,64,260,261,-1,64,261,66,-1,66,261,262,-1,66,262,68,-1,68,262,263,-1,68,263,70,-1,70,263,264,-1,70,264,106,-1,106,264,265,-1,106,265,104,-1,104,265,266,-1,104,266,102,-1,102,266,267,-1,102,267,100,-1,100,267,268,-1,100,268,98,-1,98,268,269,-1,98,269,96,-1,73,96,270,-1,270,96,269,-1,73,270,271,-1,73,271,146,-1,146,271,272,-1,146,272,141,-1,141,272,273,-1,141,273,148,-1,148,273,274,-1,148,274,149,-1,149,274,275,-1,149,275,150,-1,150,275,276,-1,150,276,151,-1,151,276,277,-1,151,277,152,-1,152,277,278,-1,152,278,153,-1,153,278,279,-1,153,279,139,-1,139,279,280,-1,139,280,140,-1,140,280,281,-1,140,281,142,-1,142,281,282,-1,142,282,143,-1,143,282,283,-1,143,283,144,-1,144,283,284,-1,144,284,145,-1,145,284,285,-1,145,285,147,-1,147,285,286,-1,147,286,71,-1,71,286,287,-1,71,287,72,-1,97,72,288,-1,288,72,287,-1,97,288,289,-1,97,289,99,-1,99,289,290,-1,99,290,101,-1,101,290,291,-1,101,291,103,-1,103,291,292,-1,103,292,105,-1,105,292,293,-1,105,293,107,-1,107,293,294,-1,107,294,108,-1,108,294,295,-1,108,295,69,-1,69,295,158,-1,69,158,67,-1,17,296,297,-1,17,297,9,-1,9,297,298,-1,9,298,8,-1,8,298,299,-1,8,299,37,-1,37,299,300,-1,37,300,11,-1,11,300,301,-1,11,301,12,-1,12,301,302,-1,12,302,116,-1,116,302,303,-1,116,303,117,-1,117,303,304,-1,117,304,119,-1,119,304,305,-1,119,305,121,-1,121,305,306,-1,121,306,123,-1,123,306,307,-1,123,307,125,-1,125,307,308,-1,125,308,127,-1,127,308,309,-1,127,309,129,-1,129,309,310,-1,129,310,41,-1,41,310,311,-1,41,311,39,-1,39,311,312,-1,39,312,38,-1,38,312,313,-1,38,313,93,-1,93,313,314,-1,93,314,94,-1,94,314,315,-1,94,315,95,-1,95,315,316,-1,95,316,27,-1,27,316,317,-1,27,317,26,-1,26,317,318,-1,26,318,24,-1,24,318,319,-1,24,319,22,-1,22,319,320,-1,22,320,20,-1,20,320,321,-1,20,321,18,-1,18,321,296,-1,18,296,17,-1,
        ]
    }
}
Shape{
    appearance Appearance {
        material  Material 	{
            diffuseColor 0.2235294117647059 0.2235294117647059 0.2235294117647059
            specularColor 0.11372549019607843 0.11372549019607843 0.11372549019607843
            ambientIntensity 0.2
            transparency 0
            shininess 0.5
        }
    }
    geometry IndexedFaceSet {
        ccw TRUE
        solid FALSE
        coord DEF co Coordinate {
            point [
                0.2283 -0.4006 0.315, 0.2184 -0.3748 0.315, 0.2166 -0.3768 0.315, 0.2283 -0.371 0.315, 0.2309 -0.3712 0.315, 0.232 -0.4002 0.315, 0.2247 -0.3714 0.315, 0.2214 -0.3727 0.315, 0.2382 -0.3968 0.315, 0.2402 -0.3769 0.315, 0.2376 -0.3743 0.315, 0.2144 -0.3908 0.315, 0.216 -0.394 0.315, 0.2184 -0.3967 0.315, 0.2353 -0.3989 0.315, 0.2345 -0.3723 0.315, 0.2147 -0.38 0.315, 0.2137 -0.3836 0.315, 0.2136 -0.3873 0.315, 0.2214 -0.3989 0.315, 0.2249 -0.4002 0.315, 0.2423 -0.3908 0.315, 0.2431 -0.3871 0.315, 0.2406 -0.3941 0.315, 0.2429 -0.3834 0.315, 0.2419 -0.38 0.315, 0.2419 -0.38 0.315
            ]
        }
        coordIndex [
            0,1,2,-1,3,0,4,-1,4,0,5,-1,3,6,0,-1,0,6,7,-1,0,7,1,-1,8,9,10,-1,11,12,2,-1,2,12,13,-1,5,14,4,-1,4,14,8,-1,4,8,15,-1,15,8,10,-1,16,17,2,-1,2,17,18,-1,2,18,11,-1,13,19,2,-1,2,19,20,-1,2,20,0,-1,21,22,23,-1,23,22,24,-1,23,24,8,-1,8,24,25,-1,8,25,9,-1,
        ]
    }
}