#VRML V2.0 utf8
# 3D model generated by easyeda2kicad.py (https://github.com/uPesy/easyeda2kicad.py)

Shape{
    appearance Appearance {
        material  Material 	{
            diffuseColor 0.2 0.4627450980392157 0.23137254901960785
            specularColor 0.01568627450980392 0.03137254901960784 0.01568627450980392
            ambientIntensity 0.2
            transparency 0
            shininess 0.5
        }
    }
    geometry IndexedFaceSet {
        ccw TRUE
        solid FALSE
        coord DEF co Coordinate {
            point [
                0.0045 -0.0048 -0.0669, 0.0053 -0.0049 -0.0669, 0.0028 -0.0107 -0.0669, 0.0027 -0.0106 -0.0669, 0.0027 -0.0115 -0.0669, 0.0019 -0.0119 -0.0669, 0.0036 -0.0049 -0.0669, 0.0027 -0.0053 -0.0669, 0.0066 -0.0116 -0.0669, 0.0092 -0.0119 -0.0669, 0.0058 -0.0119 -0.0669, 0.0053 -0.0119 -0.0669, 0.0019 0.0784 -0.0669, 0.0027 -0.0042 -0.0669, 0.0059 -0.0051 -0.0669, 0.0065 -0.0055 -0.0669, 0.0069 -0.006 -0.0669, 0.0075 -0.008 -0.0669, 0.0074 -0.0089 -0.0669, 0.0072 -0.0096 -0.0669, 0.0055 -0.0111 -0.0669, 0.0047 -0.0111 -0.0669, 0.006 -0.0108 -0.0669, 0.0065 -0.0105 -0.0669, 0.0069 -0.0101 -0.0669, 0.0037 -0.011 -0.0669, 0.0081 -0.0061 -0.0669, 0.0077 -0.0054 -0.0669, 0.0122 -0.004 -0.0669, 0.0133 -0.004 -0.0669, 0.0333 0.0784 -0.0669, 0.0133 -0.0119 -0.0669, 0.0333 -0.0119 -0.0669, 0.0073 -0.0066 -0.0669, 0.0075 -0.0074 -0.0669, 0.0072 -0.0112 -0.0669, 0.0078 -0.0106 -0.0669, 0.0092 -0.011 -0.0669, 0.0082 -0.0099 -0.0669, 0.0122 -0.011 -0.0669, 0.007 -0.0047 -0.0669, 0.0062 -0.0043 -0.0669, 0.0053 -0.004 -0.0669, 0.0085 -0.009 -0.0669, 0.0086 -0.0081 -0.0669, 0.0084 -0.007 -0.0669, 0.0046 -0.0039 -0.0669, 0.0036 -0.004 -0.0669, 0.0035 -0.0118 -0.0669, 0.0043 -0.0119 -0.0669, 0.0019 -0.0784 -0.0669, 0.0046 -0.012 -0.0669, 0.0333 -0.0784 -0.0669, 0.0049 -0.012 -0.0669, -0.0167 -0.0097 -0.0669, -0.0134 -0.0097 -0.0669, -0.0127 -0.0119 -0.0669, 0.0019 0.0474 -0.0669, 0.0019 0.0784 -0.0669, -0.0115 -0.0119 -0.0669, -0.0105 -0.0097 -0.0669, -0.0101 -0.0104 -0.0669, -0.0031 -0.0119 -0.0669, 0.0012 -0.0119 -0.0669, 0.0012 -0.004 -0.0669, -0.0029 -0.0049 -0.0669, 0.0001 -0.0049 -0.0669, 0.0001 -0.0075 -0.0669, -0.0094 -0.0111 -0.0669, -0.0086 -0.0115 -0.0669, -0.0077 -0.0118 -0.0669, -0.0377 0.0474 -0.0669, -0.0029 -0.004 -0.0669, -0.0186 -0.0119 -0.0669, -0.0377 -0.0119 -0.0669, -0.0155 -0.004 -0.0669, -0.0145 -0.004 -0.0669, -0.0046 -0.004 -0.0669, -0.0027 -0.0075 -0.0669, -0.0027 -0.0083 -0.0669, 0.0001 -0.0083 -0.0669, 0.0001 -0.011 -0.0669, -0.0031 -0.011 -0.0669, -0.0046 -0.0119 -0.0669, -0.0067 -0.0119 -0.0669, -0.0089 -0.0045 -0.0669, -0.0097 -0.005 -0.0669, -0.0097 -0.0051 -0.0669, -0.0103 -0.0057 -0.0669, -0.0107 -0.0063 -0.0669, -0.0068 -0.004 -0.0669, -0.008 -0.0041 -0.0669, -0.0109 -0.0071 -0.0669, -0.0109 -0.0079 -0.0669, -0.0108 -0.0089 -0.0669, -0.0175 -0.0119 -0.0669, 0.0019 -0.0474 -0.0669, -0.0377 -0.0474 -0.0669, 0.0019 -0.0784 -0.0669, 0.0019 -0.0784 -0.0669
            ]
        }
        coordIndex [
            0,1,2,-1,3,4,5,-1,0,2,6,-1,6,2,3,-1,6,3,7,-1,8,9,10,-1,10,9,11,-1,12,13,7,-1,1,14,2,-1,2,14,15,-1,2,15,16,-1,17,18,2,-1,2,18,19,-1,20,21,22,-1,22,21,23,-1,19,24,2,-1,2,24,23,-1,2,23,25,-1,25,23,21,-1,26,27,28,-1,28,27,12,-1,28,12,29,-1,29,12,30,-1,29,30,31,-1,31,30,32,-1,16,33,2,-1,2,33,34,-1,2,34,17,-1,8,35,9,-1,9,35,36,-1,9,36,37,-1,37,36,38,-1,37,38,39,-1,27,40,12,-1,12,40,41,-1,12,41,42,-1,38,43,39,-1,39,43,44,-1,39,44,28,-1,28,44,45,-1,28,45,26,-1,42,46,12,-1,12,46,47,-1,12,47,13,-1,4,48,5,-1,5,48,49,-1,5,49,50,-1,50,49,51,-1,50,51,52,-1,52,51,53,-1,52,53,32,-1,32,53,11,-1,32,11,31,-1,31,11,9,-1,54,55,56,-1,57,58,12,-1,59,60,61,-1,62,63,5,-1,5,63,64,-1,65,66,67,-1,61,68,59,-1,59,68,69,-1,59,69,70,-1,7,3,12,-1,12,3,5,-1,12,5,57,-1,57,5,64,-1,57,64,71,-1,71,64,72,-1,71,72,65,-1,73,74,75,-1,75,74,71,-1,75,71,76,-1,77,78,79,-1,80,81,79,-1,79,81,82,-1,79,82,77,-1,77,82,62,-1,77,62,83,-1,83,62,5,-1,83,5,84,-1,76,85,86,-1,86,87,76,-1,76,87,88,-1,76,88,89,-1,67,78,65,-1,65,78,77,-1,65,77,71,-1,71,77,90,-1,71,90,76,-1,76,90,91,-1,76,91,85,-1,89,92,76,-1,76,92,93,-1,76,93,59,-1,59,93,94,-1,59,94,60,-1,70,84,59,-1,59,84,5,-1,59,5,56,-1,56,5,95,-1,56,95,54,-1,96,97,74,-1,73,95,74,-1,74,95,5,-1,74,5,96,-1,96,5,50,-1,96,50,98,-1,
        ]
    }
}
Shape{
    appearance Appearance {
        material  Material 	{
            diffuseColor 0.7019607843137254 0.7019607843137254 0.7019607843137254
            specularColor 0.050980392156862744 0.050980392156862744 0.050980392156862744
            ambientIntensity 0.2
            transparency 0
            shininess 0.5
        }
    }
    geometry IndexedFaceSet {
        ccw TRUE
        solid FALSE
        coord DEF co Coordinate {
            point [
                0.0019 0.0784 -0.063, 0.0019 0.0474 -0.063, -0.0377 0.0474 -0.063, -0.0689 -0.0978 -0.063, -0.0377 -0.0474 -0.063, 0.0019 -0.0474 -0.063, 0.0333 0.0784 -0.063, 0.0689 0.0978 -0.063, 0.0333 -0.0784 -0.063, 0.0689 -0.0978 -0.063, 0.0019 -0.0784 -0.063, -0.0689 0.0978 -0.063, 0.1774 -0.098 -0.063, -0.1774 -0.098 -0.063, -0.1774 0.098 -0.063, 0.1774 0.098 -0.063, -0.1965 -0.098 -0.0354, -0.1967 -0.0982 0.0, -0.1965 -0.0791 -0.0354, -0.1967 0.0982 0.0, -0.1965 0.0791 -0.0354, -0.1965 0.098 -0.0354, -0.1772 -0.098 -0.0354, -0.1772 -0.0978 -0.0354, -0.1772 0.098 -0.0354, -0.1776 0.0978 -0.0354, -0.1772 0.0978 -0.0354, -0.1784 0.093 -0.0354, -0.1803 0.0884 -0.0354, -0.1834 0.0846 -0.0354, -0.1874 0.0816 -0.0354, -0.192 0.0798 -0.0354, 0.1965 0.098 -0.0354, 0.1967 0.0982 0.0, 0.1965 0.0791 -0.0354, 0.1967 -0.0982 0.0, 0.1965 -0.0791 -0.0354, 0.1965 -0.098 -0.0354, 0.1772 0.098 -0.0354, 0.1772 0.0978 -0.0354, 0.1776 0.0978 -0.0354, 0.1784 0.093 -0.0354, 0.192 0.0798 -0.0354, 0.1874 0.0816 -0.0354, 0.1834 0.0846 -0.0354, 0.1803 0.0884 -0.0354, 0.1772 -0.098 -0.0354, 0.1772 -0.098 -0.0354
            ]
        }
        coordIndex [
            0,1,2,-1,3,4,5,-1,6,7,8,-1,8,7,9,-1,8,9,10,-1,4,3,2,-1,2,3,11,-1,2,11,0,-1,12,13,9,-1,9,13,3,-1,9,3,10,-1,10,3,5,-1,14,15,11,-1,11,15,7,-1,11,7,0,-1,0,7,6,-1,16,17,18,-1,18,17,19,-1,18,19,20,-1,20,19,21,-1,22,23,13,-1,21,24,25,-1,25,24,26,-1,25,27,21,-1,21,27,28,-1,21,28,29,-1,29,30,21,-1,21,30,31,-1,21,31,20,-1,32,33,34,-1,34,33,35,-1,34,35,36,-1,36,35,37,-1,38,39,15,-1,39,38,40,-1,40,38,32,-1,40,32,41,-1,34,42,32,-1,32,42,43,-1,43,44,32,-1,32,44,45,-1,32,45,41,-1,24,21,19,-1,33,32,38,-1,15,14,38,-1,38,14,24,-1,38,24,33,-1,33,24,19,-1,46,37,35,-1,17,16,22,-1,13,12,22,-1,22,12,46,-1,22,46,17,-1,17,46,35,-1,
        ]
    }
}
Shape{
    appearance Appearance {
        material  Material 	{
            diffuseColor 0.7019607843137254 0.7019607843137254 0.0
            specularColor 0.050980392156862744 0.050980392156862744 0.0
            ambientIntensity 0.2
            transparency 0
            shininess 0.5
        }
    }
    geometry IndexedFaceSet {
        ccw TRUE
        solid FALSE
        coord DEF co Coordinate {
            point [
                0.1969 0.0984 0.0669, 0.1969 -0.0984 0.0669, 0.1967 0.0982 0.0, 0.1967 -0.0982 0.0, -0.1969 0.0984 0.0669, -0.1967 0.0982 0.0, -0.1969 -0.0984 0.0669, -0.1967 -0.0982 0.0, -0.1967 -0.0982 0.0
            ]
        }
        coordIndex [
            0,1,2,-1,2,1,3,-1,4,0,5,-1,5,0,2,-1,6,4,7,-1,7,4,5,-1,1,6,3,-1,3,6,7,-1,4,6,0,-1,0,6,1,-1,
        ]
    }
}
Shape{
    appearance Appearance {
        material  Material 	{
            diffuseColor 0.7019607843137254 0.7019607843137254 0.7019607843137254
            specularColor 0.050980392156862744 0.050980392156862744 0.050980392156862744
            ambientIntensity 0.2
            transparency 0
            shininess 0.5
        }
    }
    geometry IndexedFaceSet {
        ccw TRUE
        solid FALSE
        coord DEF co Coordinate {
            point [
                0.1774 -0.098 -0.063, 0.1772 -0.0978 -0.0354, 0.1772 -0.098 -0.0354, 0.192 -0.0798 -0.0354, 0.1965 -0.0791 -0.0354, 0.1965 -0.098 -0.0354, 0.1776 -0.0978 -0.0354, 0.1803 -0.0884 -0.0354, 0.1834 -0.0846 -0.0354, 0.1874 -0.0816 -0.0354, 0.1783 -0.093 -0.0354, -0.1772 -0.0978 -0.0354, -0.1772 -0.098 -0.0354, -0.1776 -0.0978 -0.0354, -0.1965 -0.098 -0.0354, -0.1965 -0.0791 -0.0354, -0.192 -0.0798 -0.0354, -0.1874 -0.0816 -0.0354, -0.1834 -0.0846 -0.0354, -0.1803 -0.0884 -0.0354, -0.1783 -0.093 -0.0354, -0.1774 0.098 -0.063, -0.1772 0.0978 -0.0354, -0.1772 0.098 -0.0354, -0.1772 0.098 -0.0354
            ]
        }
        coordIndex [
            0,1,2,-1,3,4,5,-1,2,1,6,-1,7,8,5,-1,5,8,9,-1,5,9,3,-1,2,6,5,-1,5,6,10,-1,5,10,7,-1,11,12,13,-1,13,12,14,-1,15,16,14,-1,14,16,17,-1,14,17,18,-1,18,19,14,-1,14,19,20,-1,14,20,13,-1,21,22,23,-1,
        ]
    }
}
Shape{
    appearance Appearance {
        material  Material 	{
            diffuseColor 0.8274509803921568 0.6666666666666666 0.12941176470588237
            specularColor 0.8274509803921568 0.6666666666666666 0.12941176470588237
            ambientIntensity 0.2
            transparency 0
            shininess 0.5
        }
    }
    geometry IndexedFaceSet {
        ccw TRUE
        solid FALSE
        coord DEF co Coordinate {
            point [
                0.0689 0.0978 -0.0709, 0.0689 -0.0978 -0.0709, 0.0689 0.0978 -0.063, 0.0689 -0.0978 -0.063, 0.1774 0.098 -0.063, 0.1776 0.0978 -0.0709, 0.1772 0.0978 -0.0354, 0.1776 0.0978 -0.0354, 0.1969 -0.0791 -0.0354, 0.1969 0.0791 -0.0354, 0.1965 -0.0791 -0.0354, 0.1965 0.0791 -0.0354, 0.1776 -0.0978 -0.0709, 0.1774 -0.098 -0.063, 0.1772 -0.0978 -0.0354, 0.1776 -0.0978 -0.0354, 0.1783 -0.093 -0.0354, 0.1783 -0.093 -0.0709, 0.192 -0.0798 -0.0709, 0.1969 -0.0791 -0.0709, 0.1969 -0.0791 -0.063, 0.1803 -0.0884 -0.0354, 0.1803 -0.0884 -0.0709, 0.1834 -0.0846 -0.0354, 0.1834 -0.0846 -0.0709, 0.1874 -0.0816 -0.0354, 0.1874 -0.0816 -0.0709, 0.192 -0.0798 -0.0354, 0.1969 0.0791 -0.0709, 0.1969 0.0791 -0.063, 0.1784 0.093 -0.0354, 0.1784 0.093 -0.0709, 0.1803 0.0884 -0.0709, 0.1803 0.0884 -0.0354, 0.1834 0.0846 -0.0709, 0.1834 0.0846 -0.0354, 0.1874 0.0816 -0.0709, 0.1874 0.0816 -0.0354, 0.192 0.0798 -0.0709, 0.192 0.0798 -0.0354, -0.0689 -0.0978 -0.063, -0.0689 -0.0978 -0.0709, -0.0689 0.0978 -0.063, -0.0689 0.0978 -0.0709, -0.1774 -0.098 -0.063, -0.1776 -0.0978 -0.0709, -0.1772 -0.0978 -0.0354, -0.1776 -0.0978 -0.0354, -0.1969 0.0791 -0.0354, -0.1969 -0.0791 -0.0354, -0.1965 0.0791 -0.0354, -0.1965 -0.0791 -0.0354, -0.1776 0.0978 -0.0709, -0.1774 0.098 -0.063, -0.1772 0.0978 -0.0354, -0.1776 0.0978 -0.0354, -0.1784 0.093 -0.0354, -0.1784 0.093 -0.0709, -0.192 0.0798 -0.0709, -0.1969 0.0791 -0.0709, -0.1969 0.0791 -0.063, -0.1803 0.0884 -0.0354, -0.1803 0.0884 -0.0709, -0.1834 0.0846 -0.0354, -0.1834 0.0846 -0.0709, -0.1874 0.0816 -0.0354, -0.1874 0.0816 -0.0709, -0.192 0.0798 -0.0354, -0.1969 -0.0791 -0.0709, -0.1969 -0.0791 -0.063, -0.1783 -0.093 -0.0354, -0.1783 -0.093 -0.0709, -0.1803 -0.0884 -0.0709, -0.1803 -0.0884 -0.0354, -0.1834 -0.0846 -0.0709, -0.1834 -0.0846 -0.0354, -0.1874 -0.0816 -0.0709, -0.1874 -0.0816 -0.0354, -0.192 -0.0798 -0.0709, -0.192 -0.0798 -0.0354, -0.192 -0.0798 -0.0354
            ]
        }
        coordIndex [
            0,1,2,-1,2,1,3,-1,4,5,2,-1,2,5,0,-1,4,6,7,-1,8,9,10,-1,10,9,11,-1,1,12,3,-1,3,12,13,-1,14,13,15,-1,16,15,17,-1,17,15,13,-1,17,13,12,-1,18,19,20,-1,16,17,21,-1,21,17,22,-1,21,22,23,-1,23,22,24,-1,23,24,25,-1,25,24,26,-1,25,26,27,-1,27,26,18,-1,27,18,10,-1,10,18,20,-1,10,20,8,-1,19,28,20,-1,20,28,29,-1,20,29,8,-1,8,29,9,-1,4,7,30,-1,5,4,31,-1,31,4,30,-1,31,30,32,-1,32,30,33,-1,32,33,34,-1,34,33,35,-1,34,35,36,-1,36,35,37,-1,36,37,38,-1,38,37,39,-1,38,39,28,-1,28,39,11,-1,28,11,29,-1,29,11,9,-1,26,24,0,-1,0,24,22,-1,0,22,1,-1,1,22,17,-1,1,17,12,-1,32,34,18,-1,32,18,31,-1,26,0,18,-1,18,0,5,-1,18,5,31,-1,28,19,38,-1,38,19,18,-1,38,18,36,-1,36,18,34,-1,40,41,42,-1,42,41,43,-1,44,45,40,-1,40,45,41,-1,44,46,47,-1,48,49,50,-1,50,49,51,-1,43,52,42,-1,42,52,53,-1,54,53,55,-1,56,55,57,-1,57,55,53,-1,57,53,52,-1,58,59,60,-1,56,57,61,-1,61,57,62,-1,61,62,63,-1,63,62,64,-1,63,64,65,-1,65,64,66,-1,65,66,67,-1,67,66,58,-1,67,58,50,-1,50,58,60,-1,50,60,48,-1,59,68,60,-1,60,68,69,-1,60,69,48,-1,48,69,49,-1,44,47,70,-1,45,44,71,-1,71,44,70,-1,71,70,72,-1,72,70,73,-1,72,73,74,-1,74,73,75,-1,74,75,76,-1,76,75,77,-1,76,77,78,-1,78,77,79,-1,78,79,68,-1,68,79,51,-1,68,51,69,-1,69,51,49,-1,72,43,71,-1,71,43,41,-1,71,41,45,-1,68,59,78,-1,78,59,58,-1,58,66,78,-1,78,66,64,-1,78,64,62,-1,72,74,43,-1,43,74,76,-1,43,76,52,-1,52,76,78,-1,52,78,57,-1,57,78,62,-1,
        ]
    }
}
Shape{
    appearance Appearance {
        material  Material 	{
            diffuseColor 0.2 0.4627450980392157 0.23137254901960785
            specularColor 0.01568627450980392 0.03137254901960784 0.01568627450980392
            ambientIntensity 0.2
            transparency 0
            shininess 0.5
        }
    }
    geometry IndexedFaceSet {
        ccw TRUE
        solid FALSE
        coord DEF co Coordinate {
            point [
                0.0333 -0.0784 -0.0669, 0.0333 -0.0784 -0.063, 0.0019 -0.0784 -0.0669, 0.0019 -0.0784 -0.063, 0.0019 -0.0784 -0.0669, 0.0019 -0.0474 -0.0669, 0.0019 -0.0474 -0.063, -0.0377 -0.0474 -0.0669, -0.0377 -0.0474 -0.063, -0.0377 -0.0119 -0.0669, -0.0377 0.0474 -0.063, -0.0377 0.0474 -0.0669, 0.0019 0.0474 -0.0669, 0.0019 0.0474 -0.063, 0.0019 0.0784 -0.0669, 0.0019 0.0784 -0.063, 0.0019 0.0784 -0.0669, 0.0333 0.0784 -0.063, 0.0333 0.0784 -0.0669, 0.0333 -0.0119 -0.0669, 0.0333 -0.0119 -0.0669
            ]
        }
        coordIndex [
            0,1,2,-1,2,1,3,-1,2,3,4,-1,5,4,6,-1,6,4,3,-1,7,5,8,-1,8,5,6,-1,7,8,9,-1,9,8,10,-1,9,10,11,-1,12,11,13,-1,13,11,10,-1,14,12,15,-1,15,12,13,-1,14,15,16,-1,16,15,17,-1,16,17,18,-1,18,17,19,-1,19,17,1,-1,19,1,0,-1,
        ]
    }
}
Shape{
    appearance Appearance {
        material  Material 	{
            diffuseColor 1.0 1.0 1.0
            specularColor 0.8784313725490196 0.8784313725490196 0.8784313725490196
            ambientIntensity 0.2
            transparency 0
            shininess 0.5
        }
    }
    geometry IndexedFaceSet {
        ccw TRUE
        solid FALSE
        coord DEF co Coordinate {
            point [
                -0.0155 -0.004 -0.063, -0.0186 -0.0119 -0.063, -0.0155 -0.004 -0.0669, -0.0186 -0.0119 -0.0669, -0.0175 -0.0119 -0.063, -0.0175 -0.0119 -0.0669, -0.0167 -0.0097 -0.063, -0.0167 -0.0097 -0.0669, -0.0134 -0.0097 -0.063, -0.0134 -0.0097 -0.0669, -0.0127 -0.0119 -0.063, -0.0127 -0.0119 -0.0669, -0.0115 -0.0119 -0.063, -0.0115 -0.0119 -0.0669, -0.0145 -0.004 -0.063, -0.0145 -0.004 -0.0669, -0.0137 -0.0088 -0.063, -0.0163 -0.0088 -0.063, -0.0149 -0.0055 -0.063, -0.0149 -0.0053 -0.063, -0.015 -0.005 -0.063, -0.015 -0.005 -0.063, -0.0151 -0.0053 -0.063, -0.0151 -0.0055 -0.063, -0.0137 -0.0088 -0.0669, -0.0163 -0.0088 -0.0669, -0.0149 -0.0055 -0.0669, -0.0149 -0.0053 -0.0669, -0.015 -0.005 -0.0669, -0.015 -0.005 -0.0669, -0.0151 -0.0053 -0.0669, -0.0151 -0.0055 -0.0669, -0.0067 -0.0119 -0.063, -0.0046 -0.0119 -0.063, -0.0067 -0.0119 -0.0669, -0.0046 -0.0119 -0.0669, -0.0046 -0.004 -0.063, -0.0046 -0.004 -0.0669, -0.0068 -0.004 -0.063, -0.0068 -0.004 -0.0669, -0.0109 -0.0079 -0.063, -0.0109 -0.0079 -0.0669, -0.0109 -0.0071 -0.0669, -0.0109 -0.0071 -0.063, -0.0107 -0.0063 -0.0669, -0.0107 -0.0063 -0.063, -0.0103 -0.0057 -0.0669, -0.0103 -0.0057 -0.063, -0.0097 -0.0051 -0.0669, -0.0097 -0.0051 -0.063, -0.0097 -0.005 -0.0669, -0.0097 -0.005 -0.063, -0.0089 -0.0045 -0.0669, -0.0089 -0.0045 -0.063, -0.008 -0.0041 -0.0669, -0.008 -0.0041 -0.063, -0.0077 -0.0118 -0.0669, -0.0077 -0.0118 -0.063, -0.0086 -0.0115 -0.0669, -0.0086 -0.0115 -0.063, -0.0094 -0.0111 -0.0669, -0.0094 -0.0111 -0.063, -0.0101 -0.0104 -0.0669, -0.0101 -0.0104 -0.063, -0.0105 -0.0097 -0.0669, -0.0105 -0.0097 -0.063, -0.0108 -0.0089 -0.0669, -0.0108 -0.0089 -0.063, -0.0094 -0.006 -0.063, -0.009 -0.0056 -0.063, -0.0084 -0.0052 -0.063, -0.0077 -0.005 -0.063, -0.0068 -0.0049 -0.063, -0.0057 -0.0049 -0.063, -0.0057 -0.011 -0.063, -0.0068 -0.011 -0.063, -0.0076 -0.011 -0.063, -0.0083 -0.0108 -0.063, -0.0088 -0.0104 -0.063, -0.0092 -0.01 -0.063, -0.0096 -0.0095 -0.063, -0.0098 -0.0087 -0.063, -0.0099 -0.0079 -0.063, -0.0098 -0.0071 -0.063, -0.0096 -0.0065 -0.063, -0.0068 -0.0049 -0.0669, -0.0057 -0.0049 -0.0669, -0.0077 -0.005 -0.0669, -0.0084 -0.0052 -0.0669, -0.009 -0.0056 -0.0669, -0.0094 -0.006 -0.0669, -0.0096 -0.0065 -0.0669, -0.0098 -0.0071 -0.0669, -0.0099 -0.0079 -0.0669, -0.0098 -0.0087 -0.0669, -0.0096 -0.0095 -0.0669, -0.0092 -0.01 -0.0669, -0.0088 -0.0104 -0.0669, -0.0083 -0.0108 -0.0669, -0.0076 -0.011 -0.0669, -0.0068 -0.011 -0.0669, -0.0057 -0.011 -0.0669, -0.0031 -0.011 -0.063, -0.0031 -0.0119 -0.063, -0.0031 -0.011 -0.0669, -0.0031 -0.0119 -0.0669, 0.0012 -0.0119 -0.063, 0.0012 -0.0119 -0.0669, 0.0012 -0.004 -0.063, 0.0012 -0.004 -0.0669, -0.0029 -0.004 -0.063, -0.0029 -0.004 -0.0669, -0.0029 -0.0049 -0.063, -0.0029 -0.0049 -0.0669, 0.0001 -0.0049 -0.063, 0.0001 -0.0049 -0.0669, 0.0001 -0.0075 -0.063, 0.0001 -0.0075 -0.0669, -0.0027 -0.0075 -0.063, -0.0027 -0.0075 -0.0669, -0.0027 -0.0083 -0.063, -0.0027 -0.0083 -0.0669, 0.0001 -0.0083 -0.063, 0.0001 -0.0083 -0.0669, 0.0001 -0.011 -0.063, 0.0001 -0.011 -0.0669, 0.0027 -0.0106 -0.063, 0.0027 -0.0115 -0.063, 0.0027 -0.0106 -0.0669, 0.0027 -0.0115 -0.0669, 0.0035 -0.0118 -0.063, 0.0049 -0.012 -0.063, 0.0049 -0.012 -0.0669, 0.0046 -0.012 -0.0669, 0.0046 -0.012 -0.063, 0.0043 -0.0119 -0.0669, 0.0035 -0.0118 -0.0669, 0.0053 -0.0119 -0.0669, 0.0058 -0.0119 -0.063, 0.0058 -0.0119 -0.0669, 0.0066 -0.0116 -0.063, 0.0066 -0.0116 -0.0669, 0.0072 -0.0112 -0.063, 0.0072 -0.0112 -0.0669, 0.0078 -0.0106 -0.063, 0.0078 -0.0106 -0.0669, 0.0082 -0.0099 -0.063, 0.0082 -0.0099 -0.0669, 0.0085 -0.009 -0.063, 0.0085 -0.009 -0.0669, 0.0086 -0.0081 -0.063, 0.0086 -0.0081 -0.0669, 0.0046 -0.0039 -0.063, 0.0046 -0.0039 -0.0669, 0.0053 -0.004 -0.0669, 0.0053 -0.004 -0.063, 0.0062 -0.0043 -0.0669, 0.0062 -0.0043 -0.063, 0.007 -0.0047 -0.0669, 0.007 -0.0047 -0.063, 0.0077 -0.0054 -0.0669, 0.0077 -0.0054 -0.063, 0.0081 -0.0061 -0.0669, 0.0081 -0.0061 -0.063, 0.0084 -0.007 -0.0669, 0.0084 -0.007 -0.063, 0.0027 -0.0042 -0.063, 0.0027 -0.0042 -0.0669, 0.0036 -0.004 -0.0669, 0.0036 -0.004 -0.063, 0.0027 -0.0053 -0.063, 0.0027 -0.0053 -0.0669, 0.0045 -0.0048 -0.063, 0.0045 -0.0048 -0.0669, 0.0036 -0.0049 -0.0669, 0.0036 -0.0049 -0.063, 0.0075 -0.008 -0.063, 0.0075 -0.008 -0.0669, 0.0075 -0.0074 -0.0669, 0.0075 -0.0074 -0.063, 0.0073 -0.0066 -0.0669, 0.0073 -0.0066 -0.063, 0.0069 -0.006 -0.0669, 0.0069 -0.006 -0.063, 0.0065 -0.0055 -0.0669, 0.0065 -0.0055 -0.063, 0.0059 -0.0051 -0.0669, 0.0059 -0.0051 -0.063, 0.0053 -0.0049 -0.0669, 0.0053 -0.0049 -0.063, 0.0047 -0.0111 -0.063, 0.0047 -0.0111 -0.0669, 0.0055 -0.0111 -0.0669, 0.0055 -0.0111 -0.063, 0.006 -0.0108 -0.0669, 0.006 -0.0108 -0.063, 0.0065 -0.0105 -0.0669, 0.0065 -0.0105 -0.063, 0.0069 -0.0101 -0.0669, 0.0069 -0.0101 -0.063, 0.0072 -0.0096 -0.0669, 0.0072 -0.0096 -0.063, 0.0074 -0.0089 -0.0669, 0.0074 -0.0089 -0.063, 0.0028 -0.0107 -0.0669, 0.0028 -0.0107 -0.063, 0.0037 -0.011 -0.0669, 0.0037 -0.011 -0.063, 0.0092 -0.011 -0.063, 0.0092 -0.0119 -0.063, 0.0092 -0.011 -0.0669, 0.0092 -0.0119 -0.0669, 0.0133 -0.0119 -0.063, 0.0133 -0.0119 -0.0669, 0.0133 -0.004 -0.063, 0.0133 -0.004 -0.0669, 0.0122 -0.004 -0.063, 0.0122 -0.004 -0.0669, 0.0122 -0.011 -0.063, 0.0122 -0.011 -0.0669, 0.0122 -0.011 -0.0669
            ]
        }
        coordIndex [
            0,1,2,-1,2,1,3,-1,1,4,3,-1,3,4,5,-1,4,6,5,-1,5,6,7,-1,6,8,7,-1,7,8,9,-1,8,10,9,-1,9,10,11,-1,10,12,11,-1,11,12,13,-1,12,14,13,-1,13,14,15,-1,14,0,15,-1,15,0,2,-1,16,8,17,-1,17,8,6,-1,18,14,16,-1,16,14,12,-1,16,12,8,-1,8,12,10,-1,18,19,14,-1,14,19,20,-1,14,20,0,-1,0,20,21,-1,0,21,22,-1,22,23,0,-1,0,23,17,-1,0,17,1,-1,1,17,6,-1,1,6,4,-1,16,17,24,-1,24,17,25,-1,18,16,26,-1,26,16,24,-1,18,26,27,-1,18,27,19,-1,19,27,28,-1,19,28,20,-1,21,20,29,-1,29,20,28,-1,21,29,30,-1,21,30,22,-1,22,30,31,-1,22,31,23,-1,17,23,25,-1,25,23,31,-1,32,33,34,-1,34,33,35,-1,33,36,35,-1,35,36,37,-1,36,38,37,-1,37,38,39,-1,40,41,42,-1,40,42,43,-1,43,42,44,-1,43,44,45,-1,45,44,46,-1,45,46,47,-1,47,46,48,-1,47,48,49,-1,49,48,50,-1,49,50,51,-1,51,50,52,-1,51,52,53,-1,53,52,54,-1,53,54,55,-1,55,54,39,-1,55,39,38,-1,32,34,56,-1,32,56,57,-1,57,56,58,-1,57,58,59,-1,59,58,60,-1,59,60,61,-1,61,60,62,-1,61,62,63,-1,63,62,64,-1,63,64,65,-1,65,64,66,-1,65,66,67,-1,67,66,41,-1,67,41,40,-1,45,47,68,-1,68,47,49,-1,68,49,69,-1,69,49,51,-1,69,51,70,-1,70,51,53,-1,70,53,71,-1,71,53,55,-1,71,55,72,-1,72,55,38,-1,72,38,73,-1,73,38,36,-1,73,36,74,-1,74,36,33,-1,74,33,75,-1,75,33,32,-1,75,32,76,-1,76,32,57,-1,76,57,77,-1,77,57,59,-1,77,59,78,-1,78,59,61,-1,78,61,79,-1,79,61,63,-1,79,63,80,-1,80,63,65,-1,80,65,81,-1,81,65,67,-1,81,67,82,-1,82,67,40,-1,82,40,83,-1,83,40,43,-1,83,43,84,-1,84,43,45,-1,84,45,68,-1,72,73,85,-1,85,73,86,-1,72,85,87,-1,72,87,71,-1,71,87,88,-1,71,88,70,-1,70,88,89,-1,70,89,69,-1,69,89,90,-1,69,90,68,-1,68,90,91,-1,68,91,84,-1,84,91,92,-1,84,92,83,-1,83,92,93,-1,83,93,82,-1,82,93,94,-1,82,94,81,-1,81,94,95,-1,81,95,80,-1,80,95,96,-1,80,96,79,-1,79,96,97,-1,79,97,78,-1,78,97,98,-1,78,98,77,-1,77,98,99,-1,77,99,76,-1,76,99,100,-1,76,100,75,-1,74,75,101,-1,101,75,100,-1,73,74,86,-1,86,74,101,-1,102,103,104,-1,104,103,105,-1,103,106,105,-1,105,106,107,-1,106,108,107,-1,107,108,109,-1,108,110,109,-1,109,110,111,-1,110,112,111,-1,111,112,113,-1,112,114,113,-1,113,114,115,-1,114,116,115,-1,115,116,117,-1,116,118,117,-1,117,118,119,-1,118,120,119,-1,119,120,121,-1,120,122,121,-1,121,122,123,-1,122,124,123,-1,123,124,125,-1,124,102,125,-1,125,102,104,-1,106,103,102,-1,102,124,106,-1,106,124,122,-1,106,122,108,-1,112,110,114,-1,114,110,108,-1,114,108,116,-1,116,108,122,-1,116,122,118,-1,118,122,120,-1,126,127,128,-1,128,127,129,-1,129,127,130,-1,131,132,133,-1,131,133,134,-1,134,133,135,-1,134,135,130,-1,130,135,136,-1,130,136,129,-1,132,131,137,-1,137,131,138,-1,137,138,139,-1,139,138,140,-1,139,140,141,-1,141,140,142,-1,141,142,143,-1,143,142,144,-1,143,144,145,-1,145,144,146,-1,145,146,147,-1,147,146,148,-1,147,148,149,-1,149,148,150,-1,149,150,151,-1,152,153,154,-1,152,154,155,-1,155,154,156,-1,155,156,157,-1,157,156,158,-1,157,158,159,-1,159,158,160,-1,159,160,161,-1,161,160,162,-1,161,162,163,-1,163,162,164,-1,163,164,165,-1,165,164,151,-1,165,151,150,-1,166,167,168,-1,166,168,169,-1,169,168,153,-1,169,153,152,-1,166,170,167,-1,167,170,171,-1,172,173,174,-1,172,174,175,-1,175,174,171,-1,175,171,170,-1,176,177,178,-1,176,178,179,-1,179,178,180,-1,179,180,181,-1,181,180,182,-1,181,182,183,-1,183,182,184,-1,183,184,185,-1,185,184,186,-1,185,186,187,-1,187,186,188,-1,187,188,189,-1,189,188,173,-1,189,173,172,-1,190,191,192,-1,190,192,193,-1,193,192,194,-1,193,194,195,-1,195,194,196,-1,195,196,197,-1,197,196,198,-1,197,198,199,-1,199,198,200,-1,199,200,201,-1,201,200,202,-1,201,202,203,-1,203,202,177,-1,203,177,176,-1,126,128,204,-1,126,204,205,-1,205,204,206,-1,205,206,207,-1,207,206,191,-1,207,191,190,-1,193,131,190,-1,190,131,134,-1,190,134,207,-1,207,134,130,-1,207,130,205,-1,205,130,127,-1,205,127,126,-1,170,166,175,-1,175,166,169,-1,175,169,172,-1,172,169,152,-1,172,152,189,-1,189,152,155,-1,189,155,187,-1,187,155,157,-1,187,157,185,-1,185,157,159,-1,185,159,183,-1,183,159,161,-1,183,161,181,-1,181,161,163,-1,181,163,179,-1,179,163,165,-1,179,165,176,-1,176,165,150,-1,176,150,203,-1,203,150,148,-1,203,148,201,-1,201,148,146,-1,201,146,199,-1,199,146,144,-1,199,144,197,-1,197,144,142,-1,197,142,195,-1,195,142,140,-1,195,140,193,-1,193,140,138,-1,193,138,131,-1,208,209,210,-1,210,209,211,-1,209,212,211,-1,211,212,213,-1,212,214,213,-1,213,214,215,-1,214,216,215,-1,215,216,217,-1,216,218,217,-1,217,218,219,-1,218,208,219,-1,219,208,210,-1,216,214,218,-1,218,214,212,-1,218,212,208,-1,208,212,209,-1,
        ]
    }
}
Shape{
    appearance Appearance {
        material  Material 	{
            diffuseColor 0.2 0.4627450980392157 0.23137254901960785
            specularColor 0.01568627450980392 0.03137254901960784 0.01568627450980392
            ambientIntensity 0.2
            transparency 0
            shininess 0.5
        }
    }
    geometry IndexedFaceSet {
        ccw TRUE
        solid FALSE
        coord DEF co Coordinate {
            point [
                -0.0137 -0.0088 -0.0669, -0.0163 -0.0088 -0.0669, -0.0149 -0.0055 -0.0669, -0.0151 -0.0055 -0.0669, -0.0149 -0.0053 -0.0669, -0.0151 -0.0053 -0.0669, -0.015 -0.005 -0.0669, -0.015 -0.005 -0.0669, -0.0057 -0.0049 -0.0669, -0.0057 -0.011 -0.0669, -0.0068 -0.0049 -0.0669, -0.0068 -0.011 -0.0669, -0.0076 -0.011 -0.0669, -0.0099 -0.0079 -0.0669, -0.0098 -0.0071 -0.0669, -0.0096 -0.0065 -0.0669, -0.0077 -0.005 -0.0669, -0.0083 -0.0108 -0.0669, -0.0088 -0.0104 -0.0669, -0.0092 -0.01 -0.0669, -0.0096 -0.0095 -0.0669, -0.0098 -0.0087 -0.0669, -0.0094 -0.006 -0.0669, -0.009 -0.0056 -0.0669, -0.0084 -0.0052 -0.0669, -0.0084 -0.0052 -0.0669
            ]
        }
        coordIndex [
            0,1,2,-1,2,1,3,-1,2,3,4,-1,4,3,5,-1,4,5,6,-1,6,5,7,-1,8,9,10,-1,10,9,11,-1,10,11,12,-1,13,14,10,-1,10,14,15,-1,10,15,16,-1,12,17,10,-1,10,17,18,-1,10,18,19,-1,19,20,10,-1,10,20,21,-1,10,21,13,-1,22,23,15,-1,15,23,24,-1,15,24,16,-1,
        ]
    }
}